<svg xmlns="http://www.w3.org/2000/svg" xmlns:xlink="http://www.w3.org/1999/xlink" id="Layer_1" x="0px" y="0px" viewBox="0 0 267.7 146.7" style="enable-background:new 0 0 267.7 146.7;" xml:space="preserve">
<style type="text/css">
	.st0{fill:#E4EBF8;}
	.st1{fill:#FFFFFF;}
	.st2{fill:#4E8FB7;}
	.st3{fill:#70B2DD;}
	.st4{fill:#3CB5A2;}
	.st5{fill:#F29188;}
	.st6{fill:#1A3155;}
	.st7{opacity:0.5;fill:#1A3155;}
	.st8{fill:#F6AF9F;}
	.st9{fill:#F0826B;}
	.st10{fill:url(#SVGID_1_);}
	.st11{fill:#ABD9F6;}
	.st12{fill:#F9C6AE;}
	.st13{fill:#525659;}
	.st14{fill:#FFFFFF;stroke:#B1539A;stroke-miterlimit:10;}
	.st15{fill:#90C6DF;}
	.st16{fill:#1D558A;}
	.st17{opacity:0.35;fill:#90C6DF;}
	.st18{opacity:0.35;fill:#70B2DD;}
</style>
<g>
	<g>
		<path class="st0" d="M252.3,101c-0.1,0.4-0.1,0.7-0.2,1.1c-4.6,25.8-18,37.1-18,37.1H32.7c0,0-12.3-22.6-6.9-42.4    c0.1-0.3,0.2-0.6,0.3-0.9c3.6-11.8,13.6-22.4,36.6-26.3c4.9-0.9,9.5-1.7,13.7-2.5c0.6-0.1,1.2-0.2,1.7-0.3    c14.6-2.8,24.8-5.3,32.5-8.1c0,0,0,0,0,0c0.6-0.2,1.1-0.4,1.7-0.6c15.7-6.2,21.1-14.2,35.2-30.5c1.1-1.3,2.3-2.5,3.5-3.7    c0.3-0.3,0.5-0.5,0.8-0.8c7.6-7.2,17.7-13.5,28.6-17.1c0.3-0.1,0.6-0.2,0.9-0.3c13.9-4.4,29.1-4.5,41.9,3.2c0.5,0.3,1,0.6,1.5,0.9    c10.1,6.7,18.7,18.5,23.8,37.2C254.4,69.3,254.6,87.2,252.3,101z"></path>
		<g>
			<path class="st1" d="M232,51.5c-2.9,14.6-12.9,26.4-29.6,35c-32.9,16.8-46,37.9-51.2,52.7h-1c0,0,0-0.1,0-0.1     c5.2-15,18.4-36.4,51.7-53.4c16.5-8.4,26.3-20,29.1-34.3c2.9-14.8-2-30.3-8.1-42.5c0.5,0.3,1,0.6,1.5,0.9     C230.3,21.9,234.9,37.1,232,51.5z"></path>
			<path class="st1" d="M252.3,101c-0.1,0.4-0.1,0.7-0.2,1.1c-11.8,5.4-26.8,11.3-45.9,17.1c-15.1,4.6-25.7,11.3-31.6,20.1h-1.1     c6-9.2,16.8-16.2,32.4-20.9C225.3,112.4,240.5,106.5,252.3,101z"></path>
			<path class="st1" d="M182.4,20.5c0,15.9-4.7,37.5-26.8,50.4c-9.4,5.5-19.9,7.5-30.5,7.5c-14.3,0-28.7-3.8-40.2-8     c-2.9-1.1-5.8-2.2-8.5-3.3c0.6-0.1,1.2-0.2,1.7-0.3c22.8,9.4,53.7,17,77,3.4c21.8-12.7,26.4-34,26.4-49.6     c0-5.3-0.5-10.3-1.2-14.6c0.3-0.1,0.6-0.2,0.9-0.3C181.9,10.1,182.4,15.2,182.4,20.5z"></path>
			<path class="st1" d="M149.5,51.3c-4.4,5.9-12.3,8.8-23.5,8.8c-4.6,0-9.7-0.5-15.4-1.5c0.6-0.2,1.1-0.4,1.7-0.6     c18.3,2.9,30.6,0.5,36.5-7.2c5.3-6.9,4.7-17.3,2.2-27c0.3-0.3,0.5-0.5,0.8-0.8C154.4,33,155.1,43.9,149.5,51.3z"></path>
			<path class="st1" d="M133.9,139.2h-0.9c-1.9-7.6-5.5-15.9-12.1-22.6c-10.7-11-27-15.6-48.4-13.6c-19.6,1.8-35.2-0.3-46.7-6.2     c0.1-0.3,0.2-0.6,0.3-0.9c11.4,5.9,26.9,8,46.4,6.2c21.7-2,38.2,2.7,49.1,13.9C128.3,122.9,131.9,131.4,133.9,139.2z"></path>
		</g>
	</g>
	<g>
		<path class="st2" d="M55.5,130.6c0,0,5.2-11.7-6.8-20.9S33.8,94,33.8,94s-4.1,21.4,3.3,31.6v14.7H55L55.5,130.6z"></path>
		<path class="st3" d="M44.7,139.5c0,0-0.6-8.2,7.6-13.7c8.2-5.5,8.1-11,8.1-11s6.3,15.7-1.7,24.7H44.7z"></path>
		<path class="st4" d="M46.5,139.5c0,0,1.3-11.1-9.1-17C27.1,116.6,24.9,109,24.9,109s-5.7,19.3,3.6,30.6H46.5z"></path>
	</g>
	<g>
		<g>
			<g>
				<path class="st5" d="M110.4,117.4c-3.2,5.3-7.4,10.4-12.4,15.2v5.5h12.3c0,0,3.9-2.1,11.7-8.1      C122.1,130.1,124.6,113,110.4,117.4z"></path>
				<path class="st5" d="M188,127.9c0,0-0.6,10.9-3.3,11.6c-2.7,0.7-13.9-9.5-13.9-9.5l-1.3-4.8l8.3-6.1      C177.7,119.2,187.6,122.2,188,127.9z"></path>
			</g>
			<g>
				<path class="st6" d="M188,127.9c-2.6-5-18.8-1.4-18.8-1.4l11.5,11.6h-51.8c1.7-6,0.7-20.5,0.7-20.5c0,0.1,0,0.2,0,0.3      c-0.8,5.8-3.8,8.9-3.8,8.9c-0.2,3-3.6,3.2-3.6,3.2c-0.3-2.7-0.9-4.9-1.8-6.6c-3.4-7-9.9-6.1-9.9-6.1c-0.7-3.6,3.2-4.6,3.2-4.6      s4.8-27.8,11.7-33.3s18.3-8.2,18.3-8.2l11.7-0.8c0,0,22.9,4.6,27.5,12.4s3.8,37.6,3.8,37.6C190.2,123.6,188,127.9,188,127.9z"></path>
				<path class="st7" d="M169.1,126.5c0,0,1.9-16.9-4.3-31.6c0,0,1,22.3-8.1,28.6c-9.1,6.3-24.6,5-28.5,16l34.2-0.3L169.1,126.5z"></path>
				<path class="st7" d="M129.5,118c-0.8,5.8-3.8,8.9-3.8,8.9c-0.2,3-3.6,3.2-3.6,3.2c-0.3-2.7-0.9-4.9-1.8-6.6      c1.8-1.8,3.9-4.5,5.1-8.4c2.4-8,0.9-16.7,0.8-17.3C128.1,105.2,129.2,114.4,129.5,118z"></path>
			</g>
		</g>
		<path class="st8" d="M154.3,132.3c0,0,12.9-9,23.8-5.4s10,11.2,6.5,12.5h-27.3L154.3,132.3z"></path>
		<g>
			<path class="st8" d="M157.8,71c0,0-2.7,15-10.7,15.1c-7,0.1-5.4-9.1-4.8-11.4c0.1-0.3,0.1-0.5,0.1-0.5l-2.9-11l15.3-8.1l0.3,1.7     v0L157.8,71z"></path>
			<path class="st9" d="M142.3,74.7c0.1-0.3,0.1-0.5,0.1-0.5l-2.9-11l15.3-8.1l0.3,1.7v0C157.2,74.7,142.5,74.7,142.3,74.7z"></path>
			<linearGradient id="SVGID_1_" gradientUnits="userSpaceOnUse" x1="120.9236" y1="41.1002" x2="159.4874" y2="41.1002">
				<stop offset="0" style="stop-color:#3F2323"></stop>
				<stop offset="1" style="stop-color:#5E3434"></stop>
			</linearGradient>
			<path class="st10" d="M156.9,49.6c0,0,2-3.8,2.5-8.9c0.5-4.7-0.9-5.8-2.8-5.8c0,0-1-5.3-3.5-7.1c-2.5-1.8-12.4,0.9-16.2,3.1     c-3.8,2.3-6.6-4-8.4-3.7c-1.8,0.3-2.1,5.1-0.7,7.3c0,0-3.2-1.8-3.7-3.6c-0.5-1.8-4.2,1.5-2.9,8.3c1.3,6.8,4.3,7.6,4.3,7.6     s0.6,7.2,6.4,8c5.9,0.8,21.4-0.6,21.4-0.6L156.9,49.6z"></path>
			<path class="st8" d="M129.6,47.1c0,0,2.9,19.5,10,22c7.2,2.5,13.2-5.2,14.1-7.2c0.9-2.1,1.3-6.4,1.3-6.4s2.4,0.6,2.7-3.8     c0.3-4.3-3.5-6.9-4.4,0.6c0,0-3.5-1.9-2.5-8.6c0,0-4,3.8-9.7,3.8c-5.6,0-0.8-3.8-0.8-3.8S136.5,47.5,129.6,47.1z"></path>
		</g>
		<g>
			<g>
				<rect x="127.6" y="137" class="st11" width="46.8" height="2.5"></rect>
				<rect x="160" y="137" class="st3" width="14.4" height="2.5"></rect>
				<path class="st12" d="M166.6,137.1c0,0-4.1-6.2-10.4-6.1c-4.7,0.1-4.9,3-4.9,3s-3.1-0.4-3.2,3H166.6z"></path>
			</g>
			<g>
				<path class="st8" d="M108.3,136.7c0,0,0.2-3.4-1.3-3.9c-1.5-0.5-2.7,0.8-2.7,0.8s-1.1-5-5.4-5.2c-4.3-0.2-11.9,4.2-7.2,8.2      H108.3z"></path>
				<path class="st3" d="M119.3,138.1c0,0.8-0.6,1.4-1.4,1.4H92.3c-0.8,0-1.4-0.6-1.4-1.4s0.6-1.4,1.4-1.4h25.6      C118.7,136.7,119.3,137.3,119.3,138.1z"></path>
				<path class="st11" d="M111.7,138.1c0,0.8-0.6,1.4-1.4,1.4h-18c-0.8,0-1.4-0.6-1.4-1.4s0.6-1.4,1.4-1.4h18      C111.1,136.7,111.7,137.3,111.7,138.1z"></path>
				<path class="st13" d="M105.1,134.4l-4.5-14.8c-0.2-0.7-0.9-1-1.6-0.9l0,0c-0.7,0.2-1.1,1-0.9,1.7l5.4,14.4      C103.5,134.8,104.4,135.4,105.1,134.4z"></path>
			</g>
		</g>
	</g>
	<g>
		<path class="st14" d="M73.1,97.5c0.5,3-0.6,5.7-2.4,6c-1.8,0.3-3.7-1.9-4.2-4.9s0.6-5.7,2.4-6C70.7,92.4,72.6,94.5,73.1,97.5z"></path>
		<path class="st15" d="M100.8,123.9H52.2c-2.1,0-4-1.3-4.8-3.3c-5.7-14.2-9.9-28-11.6-41.2c-0.4-3.1,2-5.9,5.2-5.9h49.3    c2.6,0,4.8,1.9,5.1,4.4c1.9,12.2,5.5,25.3,10.4,39C106.9,120.4,104.4,123.9,100.8,123.9z"></path>
		<path class="st16" d="M98.8,123.9H52.2c-2.1,0-4-1.3-4.8-3.3c-5.7-14.2-9.9-28-11.6-41.2c-0.4-3.1,2-5.9,5.2-5.9h47.3    c2.6,0,4.8,1.9,5.1,4.4c1.8,12.2,5.5,25.3,10.4,39C104.9,120.4,102.4,123.9,98.8,123.9z"></path>
		<g>
			<path class="st6" d="M96.4,139.5H77.8c-2.7,0-5.1-1.7-6-4.3l-5.6-19.5c3.1,0,6.1,0,9.1,0c1,0,2,0,3,0l4.5,15.2     c0.6,1.7,2.1,3,3.9,3.2l7,1.1c1.2,0.2,2.1,1.1,2.4,2.2L96.4,139.5z"></path>
			<path class="st17" d="M86.6,134.1l-1.6-0.1c-2.2-0.2-4.1-1.6-5-3.7l-4.8-14.6c1,0,2,0,3,0l4.5,15.2     C83.3,132.6,84.8,133.8,86.6,134.1z"></path>
		</g>
		<path class="st1" d="M72.7,98.2c0.7,2.9-0.2,5.6-2,6c-1.8,0.4-3.8-1.6-4.5-4.5c-0.7-2.9,0.2-5.6,2-6C70,93.3,72,95.3,72.7,98.2z"></path>
	</g>
	<g>
		<rect x="18" y="139.5" class="st4" width="222.1" height="4.6"></rect>
		<rect x="190.8" y="139.5" class="st4" width="49.2" height="4.6"></rect>
	</g>
	<g>
		<polygon class="st3" points="216.8,120.9 214.7,107.7 207.9,108.5 210.4,121.7   "></polygon>
		<path class="st2" d="M216.6,119.7l2.3-16.3c0.1-0.5,0.6-0.9,1.1-0.8l0,0c0.5,0.1,0.8,0.5,0.8,1l-2.6,16.9h1l3.5-12.9    c0.1-0.5,0.6-0.8,1.1-0.7l0,0c0.5,0.1,0.8,0.6,0.7,1.2l-3.3,12.5l-3.3,1.5L216.6,119.7z"></path>
		<path class="st4" d="M223.5,119.7v16.8c0,1.5-1.2,2.7-2.7,2.7h-9.7c-1.5,0-2.7-1.2-2.7-2.7v-16.8H223.5z"></path>
		<rect x="208.4" y="119.7" class="st4" width="15.1" height="3.9"></rect>
	</g>
	<g>
		<circle class="st18" cx="208.3" cy="37.6" r="21.5"></circle>
		
			<ellipse transform="matrix(0.8972 -0.4416 0.4416 0.8972 5.4433 95.5065)" class="st6" cx="207.9" cy="36.1" rx="20.2" ry="20.2"></ellipse>
		
			<ellipse transform="matrix(0.1493 -0.9888 0.9888 0.1493 141.2095 236.2495)" class="st4" cx="207.9" cy="36.1" rx="14.9" ry="14.9"></ellipse>
		<path class="st6" d="M216.3,35.4H209v-9.9c0-0.8-0.6-1.4-1.4-1.4s-1.4,0.6-1.4,1.4V38h1h1.9h7.3c0.7,0,1.3-0.6,1.3-1.3    C217.6,36,217,35.4,216.3,35.4z"></path>
	</g>
</g>
</svg>