<?xml version="1.0" encoding="utf-8"?>
<!-- Generator: Adobe Illustrator 23.0.3, SVG Export Plug-In . SVG Version: 6.00 Build 0)  -->
<svg version="1.1" xmlns="http://www.w3.org/2000/svg" xmlns:xlink="http://www.w3.org/1999/xlink" x="0px" y="0px"
	 viewBox="0 0 845.9 767.4" style="enable-background:new 0 0 845.9 767.4;" xml:space="preserve">
<style type="text/css">
	.st0{fill:none;}
	.st1{display:none;}
	.st2{display:inline;fill:#354351;}
	.st3{display:inline;fill:#B6C7E0;}
	.st4{display:inline;fill:#4B72A0;}
	.st5{display:inline;fill:#6D6D6D;}
	.st6{display:inline;fill:url(#SVGID_1_);}
	.st7{display:inline;}
	.st8{fill:none;stroke:#DDDDDD;stroke-miterlimit:10;}
	.st9{opacity:0.5;}
	.st10{display:inline;fill:#1E76F7;stroke:#DDDDDD;stroke-miterlimit:10;}
	.st11{fill:none;stroke:#23B7FF;stroke-miterlimit:10;}
	.st12{opacity:0.7;fill:none;stroke:#23B7FF;stroke-miterlimit:10;}
	.st13{opacity:0.4;fill:none;stroke:#23B7FF;stroke-miterlimit:10;}
	.st14{fill:url(#SVGID_2_);}
	.st15{fill:url(#SVGID_3_);}
	.st16{fill:url(#SVGID_4_);}
	.st17{fill:url(#SVGID_5_);}
	.st18{fill:#B6D0EF;}
	.st19{display:none;fill:none;stroke:#23B7FF;stroke-miterlimit:10;}
	.st20{fill:url(#SVGID_6_);}
	.st21{display:inline;fill:#B6D0EF;}
	.st22{opacity:0.8;}
	.st23{fill:#FFFFFF;}
	.st24{display:inline;fill:#FFFFFF;}
	.st25{fill:url(#SVGID_7_);}
	.st26{fill:url(#SVGID_8_);}
	.st27{fill:url(#SVGID_9_);}
	.st28{fill:url(#SVGID_10_);}
	.st29{fill:#23B7FF;}
	.st30{display:inline;fill:#23B7FF;}
	.st31{fill:url(#SVGID_11_);}
	.st32{fill:url(#SVGID_12_);}
	.st33{fill:url(#SVGID_13_);}
	.st34{fill:url(#SVGID_14_);}
	.st35{opacity:0.5;fill:url(#SVGID_15_);}
	.st36{opacity:0.3;fill:url(#SVGID_16_);}
	.st37{display:inline;fill:#1E76F7;}
	.st38{display:inline;opacity:0.4;fill:#B6D0EF;}
	.st39{display:none;opacity:0.5;}
	.st40{opacity:0.2;fill:url(#SVGID_17_);}
	.st41{fill:url(#SVGID_18_);}
</style>
<g id="Layer_1">
	<path class="st0" d="M599.6-49.2"/>
</g>
<g id="Layer_5" class="st1">
	<polygon class="st2" points="115.4,116.6 -382,260 356.1,796.1 868,636.5 	"/>
</g>
<g id="Layer_6" class="st1">
	<polygon class="st2" points="1264,502 428.5,785 -509.1,186.6 115.4,116.6 	"/>
</g>
<g id="Layer_3" class="st1">
	<polygon class="st3" points="-5.7,178.4 868,635 868,-209.8 -12.2,-605.8 	"/>
	<polygon class="st4" points="868,636.5 1265.4,502.3 1272,-185.9 868,-1.6 	"/>
</g>
<g id="Layer_2" class="st1">
	<polygon class="st5" points="-792.5,10.3 107.5,10.3 -149.1,770.3 -792.5,770.3 	"/>
</g>
<g id="Layer_19" class="st1">
	<linearGradient id="SVGID_1_" gradientUnits="userSpaceOnUse" x1="-190.403" y1="642.6335" x2="1281.0887" y2="106.8465">
		<stop  offset="0" style="stop-color:#373085"/>
		<stop  offset="8.003509e-02" style="stop-color:#2F2879"/>
		<stop  offset="0.2593" style="stop-color:#201A63"/>
		<stop  offset="0.4561" style="stop-color:#151053"/>
		<stop  offset="0.6816" style="stop-color:#0F0A4A"/>
		<stop  offset="1" style="stop-color:#0D0847"/>
	</linearGradient>
	<rect x="-282.1" y="-4" class="st6" width="1566" height="789.8"/>
</g>
<g id="grid" class="st1">
	<g class="st7">
		<polygon class="st8" points="-1636,414.7 171.7,-629.1 1979.5,414.7 171.7,1458.5 		"/>
		<line class="st8" x1="156.8" y1="1449.9" x2="1964.5" y2="406.1"/>
		<line class="st8" x1="141.8" y1="1441.2" x2="1949.6" y2="397.4"/>
		<line class="st8" x1="126.9" y1="1432.6" x2="1934.6" y2="388.8"/>
		<line class="st8" x1="112" y1="1424" x2="1919.7" y2="380.2"/>
		<line class="st8" x1="97" y1="1415.3" x2="1904.8" y2="371.6"/>
		<line class="st8" x1="82.1" y1="1406.7" x2="1889.8" y2="362.9"/>
		<line class="st8" x1="67.1" y1="1398.1" x2="1874.9" y2="354.3"/>
		<line class="st8" x1="52.2" y1="1389.5" x2="1859.9" y2="345.7"/>
		<line class="st8" x1="37.3" y1="1380.8" x2="1845" y2="337.1"/>
		<line class="st8" x1="22.3" y1="1372.2" x2="1830.1" y2="328.4"/>
		<line class="st8" x1="7.4" y1="1363.6" x2="1815.1" y2="319.8"/>
		<line class="st8" x1="-7.6" y1="1355" x2="1800.2" y2="311.2"/>
		<line class="st8" x1="-22.5" y1="1346.3" x2="1785.2" y2="302.5"/>
		<line class="st8" x1="-37.4" y1="1337.7" x2="1770.3" y2="293.9"/>
		<line class="st8" x1="-52.4" y1="1329.1" x2="1755.4" y2="285.3"/>
		<line class="st8" x1="-67.3" y1="1320.5" x2="1740.4" y2="276.7"/>
		<line class="st8" x1="-82.3" y1="1311.8" x2="1725.5" y2="268"/>
		<line class="st8" x1="-97.2" y1="1303.2" x2="1710.5" y2="259.4"/>
		<line class="st8" x1="-112.1" y1="1294.6" x2="1695.6" y2="250.8"/>
		<line class="st8" x1="-127.1" y1="1286" x2="1680.7" y2="242.2"/>
		<line class="st8" x1="-142" y1="1277.3" x2="1665.7" y2="233.5"/>
		<line class="st8" x1="-157" y1="1268.7" x2="1650.8" y2="224.9"/>
		<line class="st8" x1="-171.9" y1="1260.1" x2="1635.8" y2="216.3"/>
		<line class="st8" x1="-186.8" y1="1251.4" x2="1620.9" y2="207.7"/>
		<line class="st8" x1="-201.8" y1="1242.8" x2="1606" y2="199"/>
		<line class="st8" x1="-216.7" y1="1234.2" x2="1591" y2="190.4"/>
		<line class="st8" x1="-231.7" y1="1225.6" x2="1576.1" y2="181.8"/>
		<line class="st8" x1="-246.6" y1="1216.9" x2="1561.1" y2="173.2"/>
		<line class="st8" x1="-261.5" y1="1208.3" x2="1546.2" y2="164.5"/>
		<line class="st8" x1="-276.5" y1="1199.7" x2="1531.3" y2="155.9"/>
		<line class="st8" x1="-291.4" y1="1191.1" x2="1516.3" y2="147.3"/>
		<line class="st8" x1="-306.4" y1="1182.4" x2="1501.4" y2="138.6"/>
		<line class="st8" x1="-321.3" y1="1173.8" x2="1486.4" y2="130"/>
		<line class="st8" x1="-336.2" y1="1165.2" x2="1471.5" y2="121.4"/>
		<line class="st8" x1="-351.2" y1="1156.6" x2="1456.6" y2="112.8"/>
		<line class="st8" x1="-366.1" y1="1147.9" x2="1441.6" y2="104.1"/>
		<line class="st8" x1="-381.1" y1="1139.3" x2="1426.7" y2="95.5"/>
		<line class="st8" x1="-396" y1="1130.7" x2="1411.7" y2="86.9"/>
		<line class="st8" x1="-410.9" y1="1122.1" x2="1396.8" y2="78.3"/>
		<line class="st8" x1="-425.9" y1="1113.4" x2="1381.9" y2="69.6"/>
		<line class="st8" x1="-440.8" y1="1104.8" x2="1366.9" y2="61"/>
		<line class="st8" x1="-455.8" y1="1096.2" x2="1352" y2="52.4"/>
		<line class="st8" x1="-470.7" y1="1087.5" x2="1337" y2="43.8"/>
		<line class="st8" x1="-485.6" y1="1078.9" x2="1322.1" y2="35.1"/>
		<line class="st8" x1="-500.6" y1="1070.3" x2="1307.2" y2="26.5"/>
		<line class="st8" x1="-515.5" y1="1061.7" x2="1292.2" y2="17.9"/>
		<line class="st8" x1="-530.5" y1="1053" x2="1277.3" y2="9.3"/>
		<line class="st8" x1="-545.4" y1="1044.4" x2="1262.3" y2="0.6"/>
		<line class="st8" x1="-560.3" y1="1035.8" x2="1247.4" y2="-8"/>
		<line class="st8" x1="-575.3" y1="1027.2" x2="1232.5" y2="-16.6"/>
		<line class="st8" x1="-590.2" y1="1018.5" x2="1217.5" y2="-25.3"/>
		<line class="st8" x1="-605.2" y1="1009.9" x2="1202.6" y2="-33.9"/>
		<line class="st8" x1="-620.1" y1="1001.3" x2="1187.6" y2="-42.5"/>
		<line class="st8" x1="-635" y1="992.7" x2="1172.7" y2="-51.1"/>
		<line class="st8" x1="-650" y1="984" x2="1157.8" y2="-59.8"/>
		<line class="st8" x1="-664.9" y1="975.4" x2="1142.8" y2="-68.4"/>
		<line class="st8" x1="-679.9" y1="966.8" x2="1127.9" y2="-77"/>
		<line class="st8" x1="-694.8" y1="958.2" x2="1112.9" y2="-85.6"/>
		<line class="st8" x1="-709.7" y1="949.5" x2="1098" y2="-94.3"/>
		<line class="st8" x1="-724.7" y1="940.9" x2="1083.1" y2="-102.9"/>
		<line class="st8" x1="-739.6" y1="932.3" x2="1068.1" y2="-111.5"/>
		<line class="st8" x1="-754.6" y1="923.6" x2="1053.2" y2="-120.1"/>
		<line class="st8" x1="-769.5" y1="915" x2="1038.2" y2="-128.8"/>
		<line class="st8" x1="-784.4" y1="906.4" x2="1023.3" y2="-137.4"/>
		<line class="st8" x1="-799.4" y1="897.8" x2="1008.4" y2="-146"/>
		<line class="st8" x1="-814.3" y1="889.1" x2="993.4" y2="-154.6"/>
		<line class="st8" x1="-829.3" y1="880.5" x2="978.5" y2="-163.3"/>
		<line class="st8" x1="-844.2" y1="871.9" x2="963.5" y2="-171.9"/>
		<line class="st8" x1="-859.1" y1="863.3" x2="948.6" y2="-180.5"/>
		<line class="st8" x1="-874.1" y1="854.6" x2="933.7" y2="-189.2"/>
		<line class="st8" x1="-889" y1="846" x2="918.7" y2="-197.8"/>
		<line class="st8" x1="-904" y1="837.4" x2="903.8" y2="-206.4"/>
		<line class="st8" x1="-918.9" y1="828.8" x2="888.8" y2="-215"/>
		<line class="st8" x1="-933.8" y1="820.1" x2="873.9" y2="-223.7"/>
		<line class="st8" x1="-948.8" y1="811.5" x2="859" y2="-232.3"/>
		<line class="st8" x1="-963.7" y1="802.9" x2="844" y2="-240.9"/>
		<line class="st8" x1="-978.6" y1="794.3" x2="829.1" y2="-249.5"/>
		<line class="st8" x1="-993.6" y1="785.6" x2="814.1" y2="-258.2"/>
		<line class="st8" x1="-1008.5" y1="777" x2="799.2" y2="-266.8"/>
		<line class="st8" x1="-1023.5" y1="768.4" x2="784.3" y2="-275.4"/>
		<line class="st8" x1="-1038.4" y1="759.7" x2="769.3" y2="-284"/>
		<line class="st8" x1="-1053.3" y1="751.1" x2="754.4" y2="-292.7"/>
		<line class="st8" x1="-1068.3" y1="742.5" x2="739.4" y2="-301.3"/>
		<line class="st8" x1="-1083.2" y1="733.9" x2="724.5" y2="-309.9"/>
		<line class="st8" x1="-1098.2" y1="725.2" x2="709.6" y2="-318.5"/>
		<line class="st8" x1="-1113.1" y1="716.6" x2="694.6" y2="-327.2"/>
		<line class="st8" x1="-1128" y1="708" x2="679.7" y2="-335.8"/>
		<line class="st8" x1="-1143" y1="699.4" x2="664.7" y2="-344.4"/>
		<line class="st8" x1="-1157.9" y1="690.7" x2="649.8" y2="-353.1"/>
		<line class="st8" x1="-1172.9" y1="682.1" x2="634.9" y2="-361.7"/>
		<line class="st8" x1="-1187.8" y1="673.5" x2="619.9" y2="-370.3"/>
		<line class="st8" x1="-1202.7" y1="664.9" x2="605" y2="-378.9"/>
		<line class="st8" x1="-1217.7" y1="656.2" x2="590" y2="-387.6"/>
		<line class="st8" x1="-1232.6" y1="647.6" x2="575.1" y2="-396.2"/>
		<line class="st8" x1="-1247.6" y1="639" x2="560.2" y2="-404.8"/>
		<line class="st8" x1="-1262.5" y1="630.4" x2="545.2" y2="-413.4"/>
		<line class="st8" x1="-1277.4" y1="621.7" x2="530.3" y2="-422.1"/>
		<line class="st8" x1="-1292.4" y1="613.1" x2="515.3" y2="-430.7"/>
		<line class="st8" x1="-1307.3" y1="604.5" x2="500.4" y2="-439.3"/>
		<line class="st8" x1="-1322.3" y1="595.8" x2="485.5" y2="-447.9"/>
		<line class="st8" x1="-1337.2" y1="587.2" x2="470.5" y2="-456.6"/>
		<line class="st8" x1="-1352.1" y1="578.6" x2="455.6" y2="-465.2"/>
		<line class="st8" x1="-1367.1" y1="570" x2="440.6" y2="-473.8"/>
		<line class="st8" x1="-1382" y1="561.3" x2="425.7" y2="-482.4"/>
		<line class="st8" x1="-1397" y1="552.7" x2="410.8" y2="-491.1"/>
		<line class="st8" x1="-1411.9" y1="544.1" x2="395.8" y2="-499.7"/>
		<line class="st8" x1="-1426.8" y1="535.5" x2="380.9" y2="-508.3"/>
		<line class="st8" x1="-1441.8" y1="526.8" x2="365.9" y2="-517"/>
		<line class="st8" x1="-1456.7" y1="518.2" x2="351" y2="-525.6"/>
		<line class="st8" x1="-1471.7" y1="509.6" x2="336.1" y2="-534.2"/>
		<line class="st8" x1="-1486.6" y1="501" x2="321.1" y2="-542.8"/>
		<line class="st8" x1="-1501.5" y1="492.3" x2="306.2" y2="-551.5"/>
		<line class="st8" x1="-1516.5" y1="483.7" x2="291.2" y2="-560.1"/>
		<line class="st8" x1="-1531.4" y1="475.1" x2="276.3" y2="-568.7"/>
		<line class="st8" x1="-1546.4" y1="466.4" x2="261.4" y2="-577.3"/>
		<line class="st8" x1="-1561.3" y1="457.8" x2="246.4" y2="-586"/>
		<line class="st8" x1="-1576.2" y1="449.2" x2="231.5" y2="-594.6"/>
		<line class="st8" x1="-1591.2" y1="440.6" x2="216.5" y2="-603.2"/>
		<line class="st8" x1="-1606.1" y1="431.9" x2="201.6" y2="-611.8"/>
		<line class="st8" x1="-1621.1" y1="423.3" x2="186.7" y2="-620.5"/>
		<line class="st8" x1="156.8" y1="-620.5" x2="1964.5" y2="423.3"/>
		<line class="st8" x1="141.8" y1="-611.8" x2="1949.6" y2="431.9"/>
		<line class="st8" x1="126.9" y1="-603.2" x2="1934.6" y2="440.6"/>
		<line class="st8" x1="112" y1="-594.6" x2="1919.7" y2="449.2"/>
		<line class="st8" x1="97" y1="-586" x2="1904.8" y2="457.8"/>
		<line class="st8" x1="82.1" y1="-577.3" x2="1889.8" y2="466.4"/>
		<line class="st8" x1="67.1" y1="-568.7" x2="1874.9" y2="475.1"/>
		<line class="st8" x1="52.2" y1="-560.1" x2="1859.9" y2="483.7"/>
		<line class="st8" x1="37.3" y1="-551.5" x2="1845" y2="492.3"/>
		<line class="st8" x1="22.3" y1="-542.8" x2="1830.1" y2="501"/>
		<line class="st8" x1="7.4" y1="-534.2" x2="1815.1" y2="509.6"/>
		<line class="st8" x1="-7.6" y1="-525.6" x2="1800.2" y2="518.2"/>
		<line class="st8" x1="-22.5" y1="-517" x2="1785.2" y2="526.8"/>
		<line class="st8" x1="-37.4" y1="-508.3" x2="1770.3" y2="535.5"/>
		<line class="st8" x1="-52.4" y1="-499.7" x2="1755.4" y2="544.1"/>
		<line class="st8" x1="-67.3" y1="-491.1" x2="1740.4" y2="552.7"/>
		<line class="st8" x1="-82.3" y1="-482.4" x2="1725.5" y2="561.3"/>
		<line class="st8" x1="-97.2" y1="-473.8" x2="1710.5" y2="570"/>
		<line class="st8" x1="-112.1" y1="-465.2" x2="1695.6" y2="578.6"/>
		<line class="st8" x1="-127.1" y1="-456.6" x2="1680.7" y2="587.2"/>
		<line class="st8" x1="-142" y1="-447.9" x2="1665.7" y2="595.8"/>
		<line class="st8" x1="-157" y1="-439.3" x2="1650.8" y2="604.5"/>
		<line class="st8" x1="-171.9" y1="-430.7" x2="1635.8" y2="613.1"/>
		<line class="st8" x1="-186.8" y1="-422.1" x2="1620.9" y2="621.7"/>
		<line class="st8" x1="-201.8" y1="-413.4" x2="1606" y2="630.4"/>
		<line class="st8" x1="-216.7" y1="-404.8" x2="1591" y2="639"/>
		<line class="st8" x1="-231.7" y1="-396.2" x2="1576.1" y2="647.6"/>
		<line class="st8" x1="-246.6" y1="-387.6" x2="1561.1" y2="656.2"/>
		<line class="st8" x1="-261.5" y1="-378.9" x2="1546.2" y2="664.9"/>
		<line class="st8" x1="-276.5" y1="-370.3" x2="1531.3" y2="673.5"/>
		<line class="st8" x1="-291.4" y1="-361.7" x2="1516.3" y2="682.1"/>
		<line class="st8" x1="-306.4" y1="-353.1" x2="1501.4" y2="690.7"/>
		<line class="st8" x1="-321.3" y1="-344.4" x2="1486.4" y2="699.4"/>
		<line class="st8" x1="-336.2" y1="-335.8" x2="1471.5" y2="708"/>
		<line class="st8" x1="-351.2" y1="-327.2" x2="1456.6" y2="716.6"/>
		<line class="st8" x1="-366.1" y1="-318.5" x2="1441.6" y2="725.2"/>
		<line class="st8" x1="-381.1" y1="-309.9" x2="1426.7" y2="733.9"/>
		<line class="st8" x1="-396" y1="-301.3" x2="1411.7" y2="742.5"/>
		<line class="st8" x1="-410.9" y1="-292.7" x2="1396.8" y2="751.1"/>
		<line class="st8" x1="-425.9" y1="-284" x2="1381.9" y2="759.7"/>
		<line class="st8" x1="-440.8" y1="-275.4" x2="1366.9" y2="768.4"/>
		<line class="st8" x1="-455.8" y1="-266.8" x2="1352" y2="777"/>
		<line class="st8" x1="-470.7" y1="-258.2" x2="1337" y2="785.6"/>
		<line class="st8" x1="-485.6" y1="-249.5" x2="1322.1" y2="794.3"/>
		<line class="st8" x1="-500.6" y1="-240.9" x2="1307.2" y2="802.9"/>
		<line class="st8" x1="-515.5" y1="-232.3" x2="1292.2" y2="811.5"/>
		<line class="st8" x1="-530.5" y1="-223.7" x2="1277.3" y2="820.1"/>
		<line class="st8" x1="-545.4" y1="-215" x2="1262.3" y2="828.8"/>
		<line class="st8" x1="-560.3" y1="-206.4" x2="1247.4" y2="837.4"/>
		<line class="st8" x1="-575.3" y1="-197.8" x2="1232.5" y2="846"/>
		<line class="st8" x1="-590.2" y1="-189.2" x2="1217.5" y2="854.6"/>
		<line class="st8" x1="-605.2" y1="-180.5" x2="1202.6" y2="863.3"/>
		<line class="st8" x1="-620.1" y1="-171.9" x2="1187.6" y2="871.9"/>
		<line class="st8" x1="-635" y1="-163.3" x2="1172.7" y2="880.5"/>
		<line class="st8" x1="-650" y1="-154.6" x2="1157.8" y2="889.1"/>
		<line class="st8" x1="-664.9" y1="-146" x2="1142.8" y2="897.8"/>
		<line class="st8" x1="-679.9" y1="-137.4" x2="1127.9" y2="906.4"/>
		<line class="st8" x1="-694.8" y1="-128.8" x2="1112.9" y2="915"/>
		<line class="st8" x1="-709.7" y1="-120.1" x2="1098" y2="923.6"/>
		<line class="st8" x1="-724.7" y1="-111.5" x2="1083.1" y2="932.3"/>
		<line class="st8" x1="-739.6" y1="-102.9" x2="1068.1" y2="940.9"/>
		<line class="st8" x1="-754.6" y1="-94.3" x2="1053.2" y2="949.5"/>
		<line class="st8" x1="-769.5" y1="-85.6" x2="1038.2" y2="958.2"/>
		<line class="st8" x1="-784.4" y1="-77" x2="1023.3" y2="966.8"/>
		<line class="st8" x1="-799.4" y1="-68.4" x2="1008.4" y2="975.4"/>
		<line class="st8" x1="-814.3" y1="-59.8" x2="993.4" y2="984"/>
		<line class="st8" x1="-829.3" y1="-51.1" x2="978.5" y2="992.7"/>
		<line class="st8" x1="-844.2" y1="-42.5" x2="963.5" y2="1001.3"/>
		<line class="st8" x1="-859.1" y1="-33.9" x2="948.6" y2="1009.9"/>
		<line class="st8" x1="-874.1" y1="-25.3" x2="933.7" y2="1018.5"/>
		<line class="st8" x1="-889" y1="-16.6" x2="918.7" y2="1027.2"/>
		<line class="st8" x1="-904" y1="-8" x2="903.8" y2="1035.8"/>
		<line class="st8" x1="-918.9" y1="0.6" x2="888.8" y2="1044.4"/>
		<line class="st8" x1="-933.8" y1="9.3" x2="873.9" y2="1053"/>
		<line class="st8" x1="-948.8" y1="17.9" x2="859" y2="1061.7"/>
		<line class="st8" x1="-963.7" y1="26.5" x2="844" y2="1070.3"/>
		<line class="st8" x1="-978.6" y1="35.1" x2="829.1" y2="1078.9"/>
		<line class="st8" x1="-993.6" y1="43.8" x2="814.1" y2="1087.5"/>
		<line class="st8" x1="-1008.5" y1="52.4" x2="799.2" y2="1096.2"/>
		<line class="st8" x1="-1023.5" y1="61" x2="784.3" y2="1104.8"/>
		<line class="st8" x1="-1038.4" y1="69.6" x2="769.3" y2="1113.4"/>
		<line class="st8" x1="-1053.3" y1="78.3" x2="754.4" y2="1122.1"/>
		<line class="st8" x1="-1068.3" y1="86.9" x2="739.4" y2="1130.7"/>
		<line class="st8" x1="-1083.2" y1="95.5" x2="724.5" y2="1139.3"/>
		<line class="st8" x1="-1098.2" y1="104.1" x2="709.6" y2="1147.9"/>
		<line class="st8" x1="-1113.1" y1="112.8" x2="694.6" y2="1156.6"/>
		<line class="st8" x1="-1128" y1="121.4" x2="679.7" y2="1165.2"/>
		<line class="st8" x1="-1143" y1="130" x2="664.7" y2="1173.8"/>
		<line class="st8" x1="-1157.9" y1="138.6" x2="649.8" y2="1182.4"/>
		<line class="st8" x1="-1172.9" y1="147.3" x2="634.9" y2="1191.1"/>
		<line class="st8" x1="-1187.8" y1="155.9" x2="619.9" y2="1199.7"/>
		<line class="st8" x1="-1202.7" y1="164.5" x2="605" y2="1208.3"/>
		<line class="st8" x1="-1217.7" y1="173.2" x2="590" y2="1216.9"/>
		<line class="st8" x1="-1232.6" y1="181.8" x2="575.1" y2="1225.6"/>
		<line class="st8" x1="-1247.6" y1="190.4" x2="560.2" y2="1234.2"/>
		<line class="st8" x1="-1262.5" y1="199" x2="545.2" y2="1242.8"/>
		<line class="st8" x1="-1277.4" y1="207.7" x2="530.3" y2="1251.4"/>
		<line class="st8" x1="-1292.4" y1="216.3" x2="515.3" y2="1260.1"/>
		<line class="st8" x1="-1307.3" y1="224.9" x2="500.4" y2="1268.7"/>
		<line class="st8" x1="-1322.3" y1="233.5" x2="485.5" y2="1277.3"/>
		<line class="st8" x1="-1337.2" y1="242.2" x2="470.5" y2="1286"/>
		<line class="st8" x1="-1352.1" y1="250.8" x2="455.6" y2="1294.6"/>
		<line class="st8" x1="-1367.1" y1="259.4" x2="440.6" y2="1303.2"/>
		<line class="st8" x1="-1382" y1="268" x2="425.7" y2="1311.8"/>
		<line class="st8" x1="-1397" y1="276.7" x2="410.8" y2="1320.5"/>
		<line class="st8" x1="-1411.9" y1="285.3" x2="395.8" y2="1329.1"/>
		<line class="st8" x1="-1426.8" y1="293.9" x2="380.9" y2="1337.7"/>
		<line class="st8" x1="-1441.8" y1="302.5" x2="365.9" y2="1346.3"/>
		<line class="st8" x1="-1456.7" y1="311.2" x2="351" y2="1355"/>
		<line class="st8" x1="-1471.7" y1="319.8" x2="336.1" y2="1363.6"/>
		<line class="st8" x1="-1486.6" y1="328.4" x2="321.1" y2="1372.2"/>
		<line class="st8" x1="-1501.5" y1="337.1" x2="306.2" y2="1380.8"/>
		<line class="st8" x1="-1516.5" y1="345.7" x2="291.2" y2="1389.5"/>
		<line class="st8" x1="-1531.4" y1="354.3" x2="276.3" y2="1398.1"/>
		<line class="st8" x1="-1546.4" y1="362.9" x2="261.4" y2="1406.7"/>
		<line class="st8" x1="-1561.3" y1="371.6" x2="246.4" y2="1415.3"/>
		<line class="st8" x1="-1576.2" y1="380.2" x2="231.5" y2="1424"/>
		<line class="st8" x1="-1591.2" y1="388.8" x2="216.5" y2="1432.6"/>
		<line class="st8" x1="-1606.1" y1="397.4" x2="201.6" y2="1441.2"/>
		<line class="st8" x1="-1621.1" y1="406.1" x2="186.7" y2="1449.9"/>
	</g>
</g>
<g id="Layer_20" class="st9">
</g>
<g id="Layer_10" class="st1">
	<path class="st10" d="M146.5,368.8L300,281c4.3-2.5,9.6-2.4,13.8,0.1l225.7,131.7c9.1,5.3,9.1,18.6,0,23.9l-149.8,87
		c-4.3,2.5-9.5,2.5-13.8,0.1L146.5,392.8C137.2,387.5,137.2,374.1,146.5,368.8z"/>
</g>
<g id="laptop">
	<g>
		<path class="st11" d="M141.9,407.7l163.8-95l238.8,138c6.4,3.7,6.4,12.9,0.1,16.6l-150.2,88.2c-7.9,4.6-17.6,4.7-25.5,0.1
			L143.2,423C136.2,419.1,135,411.8,141.9,407.7z"/>
		<path class="st12" d="M141.9,424.7l163.8-95l240.1,138.7c5.8,3.4,5.9,11.8,0.1,15.2l-151.5,89c-7.9,4.6-17.6,4.7-25.5,0.1
			L143.2,440C136.2,436.1,135,428.8,141.9,424.7z"/>
		<path class="st13" d="M141.9,440.7l163.8-95l240.5,139c5.6,3.3,5.7,11.4,0.1,14.7l-151.9,89.2c-7.9,4.6-17.6,4.7-25.5,0.1
			L143.2,456C136.2,452.1,135,444.8,141.9,440.7z"/>
	</g>
	<linearGradient id="SVGID_2_" gradientUnits="userSpaceOnUse" x1="305.7531" y1="261.2503" x2="560.1952" y2="261.2503">
		<stop  offset="0" style="stop-color:#FFFFFF"/>
		<stop  offset="1" style="stop-color:#A5B6D9"/>
	</linearGradient>
	<path class="st14" d="M305.8,293.7L307.3,93c0-7.9,8.6-12.8,15.4-8.9l227.8,130.6c6.1,3.5,9.9,10.1,9.7,17.2l-1.3,207.9
		L305.8,293.7z"/>
	<linearGradient id="SVGID_3_" gradientUnits="userSpaceOnUse" x1="136.5064" y1="416.8954" x2="558.8781" y2="416.8954">
		<stop  offset="0" style="stop-color:#23B7FF"/>
		<stop  offset="1" style="stop-color:#3D1AAC"/>
	</linearGradient>
	<path class="st15" d="M140.9,379.1l164.8-85.4L558.9,428v11.8l-164.5,96.8c-7.9,4.6-17.6,4.7-25.5,0.1L142.6,406.1
		C135.7,402.1,134,383.1,140.9,379.1z"/>
	<linearGradient id="SVGID_4_" gradientUnits="userSpaceOnUse" x1="137.3061" y1="404.8954" x2="558.8781" y2="404.8954">
		<stop  offset="0" style="stop-color:#FFFFFF"/>
		<stop  offset="1" style="stop-color:#A5B6D9"/>
	</linearGradient>
	<path class="st16" d="M141.9,376.7l163.8-95L558.9,428l-164.5,96.6c-7.9,4.6-17.6,4.7-25.5,0.1L143.2,392
		C136.2,388.1,135,380.8,141.9,376.7z"/>
	<linearGradient id="SVGID_5_" gradientUnits="userSpaceOnUse" x1="319.8156" y1="251.3449" x2="545.3781" y2="251.3449">
		<stop  offset="0" style="stop-color:#23B7FF"/>
		<stop  offset="1" style="stop-color:#3D1AAC"/>
	</linearGradient>
	<polygon class="st17" points="321.5,273.8 319.8,100 545.4,230.5 544.8,402.7 	"/>
	<polygon class="st18" points="285.2,410.6 345.2,445.4 303.3,471.9 243.9,435.1 	"/>
	<path class="st19" d="M139.7,431l164.8-86.9L557.8,464l-0.1,26.1l-164.5,96.8c-7.9,4.6-17.6,4.7-25.5,0.1l-226.9-130
		C133.8,453.1,132.8,435,139.7,431z"/>
	<linearGradient id="SVGID_6_" gradientUnits="userSpaceOnUse" x1="216.3316" y1="389.2947" x2="526.9852" y2="389.2947">
		<stop  offset="0" style="stop-color:#B6D0EF"/>
		<stop  offset="0.1996" style="stop-color:#B3CFEF"/>
		<stop  offset="0.3635" style="stop-color:#A9CEF0"/>
		<stop  offset="0.5148" style="stop-color:#97CBF2"/>
		<stop  offset="0.6586" style="stop-color:#7FC7F5"/>
		<stop  offset="0.797" style="stop-color:#60C1F8"/>
		<stop  offset="0.9296" style="stop-color:#3ABBFC"/>
		<stop  offset="1" style="stop-color:#23B7FF"/>
	</linearGradient>
	<path class="st20" d="M330.1,317.8l-4.2,2.4c-0.7,0.4-1.9,0.4-2.6,0l-11.6-6.7c-0.7-0.4-0.7-1.1,0-1.5l4.2-2.4
		c0.7-0.4,1.9-0.4,2.6,0l11.6,6.7C330.8,316.7,330.8,317.4,330.1,317.8z M346.5,325.8l-11.6-6.7c-0.7-0.4-1.9-0.4-2.6,0l-4.2,2.4
		c-0.7,0.4-0.7,1.1,0,1.5l11.6,6.7c0.7,0.4,1.9,0.4,2.6,0l4.2-2.4C347.2,326.9,347.2,326.2,346.5,325.8z M313.7,306.9l-11.6-6.7
		c-0.7-0.4-1.9-0.4-2.6,0l-4.2,2.4c-0.7,0.4-0.7,1.1,0,1.5l11.6,6.7c0.7,0.4,1.9,0.4,2.6,0l4.2-2.4
		C314.4,308,314.4,307.3,313.7,306.9z M362.8,335.2l-11.6-6.7c-0.7-0.4-1.9-0.4-2.6,0l-4.2,2.4c-0.7,0.4-0.7,1.1,0,1.5l11.6,6.7
		c0.7,0.4,1.9,0.4,2.6,0l4.2-2.4C363.5,336.3,363.5,335.6,362.8,335.2z M379.2,344.7l-11.6-6.7c-0.7-0.4-1.9-0.4-2.6,0l-4.2,2.4
		c-0.7,0.4-0.7,1.1,0,1.5l11.6,6.7c0.7,0.4,1.9,0.4,2.6,0l4.2-2.4C379.9,345.8,379.9,345.1,379.2,344.7z M395.5,354.1l-11.6-6.7
		c-0.7-0.4-1.9-0.4-2.6,0l-4.2,2.4c-0.7,0.4-0.7,1.1,0,1.5l11.6,6.7c0.7,0.4,1.9,0.4,2.6,0l4.2-2.4
		C396.3,355.2,396.3,354.5,395.5,354.1z M411.9,363.6l-11.6-6.7c-0.7-0.4-1.9-0.4-2.6,0l-4.2,2.4c-0.7,0.4-0.7,1.1,0,1.5l11.6,6.7
		c0.7,0.4,1.9,0.4,2.6,0l4.2-2.4C412.6,364.7,412.6,364,411.9,363.6z M428.3,373l-11.6-6.7c-0.7-0.4-1.9-0.4-2.6,0l-4.2,2.4
		c-0.7,0.4-0.7,1.1,0,1.5l11.6,6.7c0.7,0.4,1.9,0.4,2.6,0l4.2-2.4C429,374.1,429,373.4,428.3,373z M444.6,382.5l-11.6-6.7
		c-0.7-0.4-1.9-0.4-2.6,0l-4.2,2.4c-0.7,0.4-0.7,1.1,0,1.5l11.6,6.7c0.7,0.4,1.9,0.4,2.6,0l4.2-2.4
		C445.4,383.5,445.4,382.9,444.6,382.5z M461,391.9l-11.6-6.7c-0.7-0.4-1.9-0.4-2.6,0l-4.2,2.4c-0.7,0.4-0.7,1.1,0,1.5l11.6,6.7
		c0.7,0.4,1.9,0.4,2.6,0l4.2-2.4C461.7,393,461.7,392.3,461,391.9z M477.4,401.4l-11.6-6.7c-0.7-0.4-1.9-0.4-2.6,0l-4.2,2.4
		c-0.7,0.4-0.7,1.1,0,1.5l11.6,6.7c0.7,0.4,1.9,0.4,2.6,0l4.2-2.4C478.1,402.4,478.1,401.8,477.4,401.4z M493.7,410.8l-11.6-6.7
		c-0.7-0.4-1.9-0.4-2.6,0l-4.2,2.4c-0.7,0.4-0.7,1.1,0,1.5l11.6,6.7c0.7,0.4,1.9,0.4,2.6,0l4.2-2.4
		C494.4,411.9,494.4,411.2,493.7,410.8z M510.1,420.3l-11.6-6.7c-0.7-0.4-1.9-0.4-2.6,0l-4.2,2.4c-0.7,0.4-0.7,1.1,0,1.5l11.6,6.7
		c0.7,0.4,1.9,0.4,2.6,0l4.2-2.4C510.8,421.3,510.8,420.7,510.1,420.3z M519.7,433.6c0.7,0.4,1.9,0.4,2.6,0l4.2-2.4
		c0.7-0.4,0.7-1.1,0-1.5l-11.6-6.7c-0.7-0.4-1.9-0.4-2.6,0l-4.2,2.4c-0.7,0.4-0.7,1.1,0,1.5L519.7,433.6z M293.2,305.6
		c-0.8-0.5-2.2-0.5-3.1,0l-10.4,6c-0.8,0.5-0.8,1.3,0,1.8l10.4,6c0.8,0.5,2.2,0.5,3.1,0l10.4-6c0.8-0.5,0.8-1.3,0-1.8L293.2,305.6z
		 M319,320.5l-10.4-6c-0.8-0.5-2.2-0.5-3.1,0l-10.4,6c-0.8,0.5-0.8,1.3,0,1.8l10.4,6c0.8,0.5,2.2,0.5,3.1,0l10.4-6
		C319.8,321.8,319.8,321,319,320.5z M334.5,329.4l-10.4-6c-0.8-0.5-2.2-0.5-3.1,0l-10.4,6c-0.8,0.5-0.8,1.3,0,1.8l10.4,6
		c0.8,0.5,2.2,0.5,3.1,0l10.4-6C335.3,330.7,335.3,329.9,334.5,329.4z M349.9,338.4l-10.4-6c-0.8-0.5-2.2-0.5-3.1,0l-10.4,6
		c-0.8,0.5-0.8,1.3,0,1.8l10.4,6c0.8,0.5,2.2,0.5,3.1,0l10.4-6C350.8,339.6,350.8,338.8,349.9,338.4z M365.4,347.3l-10.4-6
		c-0.8-0.5-2.2-0.5-3.1,0l-10.4,6c-0.8,0.5-0.8,1.3,0,1.8l10.4,6c0.8,0.5,2.2,0.5,3.1,0l10.4-6C366.2,348.6,366.2,347.8,365.4,347.3
		z M380.8,356.2l-10.4-6c-0.8-0.5-2.2-0.5-3.1,0l-10.4,6c-0.8,0.5-0.8,1.3,0,1.8l10.4,6c0.8,0.5,2.2,0.5,3.1,0l10.4-6
		C381.7,357.5,381.7,356.7,380.8,356.2z M396.3,365.1l-10.4-6c-0.8-0.5-2.2-0.5-3.1,0l-10.4,6c-0.8,0.5-0.8,1.3,0,1.8l10.4,6
		c0.8,0.5,2.2,0.5,3.1,0l10.4-6C397.1,366.4,397.1,365.6,396.3,365.1z M411.7,374.1l-10.4-6c-0.8-0.5-2.2-0.5-3.1,0l-10.4,6
		c-0.8,0.5-0.8,1.3,0,1.8l10.4,6c0.8,0.5,2.2,0.5,3.1,0l10.4-6C412.6,375.3,412.6,374.5,411.7,374.1z M427.2,383l-10.4-6
		c-0.8-0.5-2.2-0.5-3.1,0l-10.4,6c-0.8,0.5-0.8,1.3,0,1.8l10.4,6c0.8,0.5,2.2,0.5,3.1,0l10.4-6C428.1,384.3,428.1,383.5,427.2,383z
		 M442.7,391.9l-10.4-6c-0.8-0.5-2.2-0.5-3.1,0l-10.4,6c-0.8,0.5-0.8,1.3,0,1.8l10.4,6c0.8,0.5,2.2,0.5,3.1,0l10.4-6
		C443.5,393.2,443.5,392.4,442.7,391.9z M458.1,400.8l-10.4-6c-0.8-0.5-2.2-0.5-3.1,0l-10.4,6c-0.8,0.5-0.8,1.3,0,1.8l10.4,6
		c0.8,0.5,2.2,0.5,3.1,0l10.4-6C459,402.1,459,401.3,458.1,400.8z M473.6,409.8l-10.4-6c-0.8-0.5-2.2-0.5-3.1,0l-10.4,6
		c-0.8,0.5-0.8,1.3,0,1.8l10.4,6c0.8,0.5,2.2,0.5,3.1,0l10.4-6C474.4,411,474.4,410.2,473.6,409.8z M478.7,426.4l10.4-6
		c0.8-0.5,0.8-1.3,0-1.8l-10.4-6c-0.8-0.5-2.2-0.5-3.1,0l-10.4,6c-0.8,0.5-0.8,1.3,0,1.8l10.4,6
		C476.4,426.9,477.8,426.9,478.7,426.4z M503.3,442.4c0.8,0.5,2.2,0.5,3.1,0l10.4-6c0.8-0.5,0.8-1.3,0-1.8l-22.4-12.9
		c-0.8-0.5-2.2-0.5-3.1,0l-10.4,6c-0.8,0.5-0.8,1.3,0,1.8L503.3,442.4z M487.6,451.5c0.8,0.5,2.2,0.5,3.1,0l10.4-6
		c0.8-0.5,0.8-1.3,0-1.8l-10.4-6c-0.8-0.5-2.2-0.5-3.1,0l-10.4,6c-0.8,0.5-0.8,1.3,0,1.8L487.6,451.5z M461.7,436.6l10.4,6
		c0.8,0.5,2.2,0.5,3.1,0l10.4-6c0.8-0.5,0.8-1.3,0-1.8l-10.4-6c-0.8-0.5-2.2-0.5-3.1,0l-10.4,6C460.9,435.3,460.9,436.1,461.7,436.6
		z M459.7,433.7l10.4-6c0.8-0.5,0.8-1.3,0-1.8l-10.4-6c-0.8-0.5-2.2-0.5-3.1,0l-10.4,6c-0.8,0.5-0.8,1.3,0,1.8l10.4,6
		C457.5,434.2,458.9,434.2,459.7,433.7z M430.8,418.8l10.4,6c0.8,0.5,2.2,0.5,3.1,0l10.4-6c0.8-0.5,0.8-1.3,0-1.8l-10.4-6
		c-0.8-0.5-2.2-0.5-3.1,0l-10.4,6C430,417.5,430,418.3,430.8,418.8z M428.8,415.8l10.4-6c0.8-0.5,0.8-1.3,0-1.8l-10.4-6
		c-0.8-0.5-2.2-0.5-3.1,0l-10.4,6c-0.8,0.5-0.8,1.3,0,1.8l10.4,6C426.6,416.3,428,416.3,428.8,415.8z M423.7,399.1l-10.4-6
		c-0.8-0.5-2.2-0.5-3.1,0l-10.4,6c-0.8,0.5-0.8,1.3,0,1.8l10.4,6c0.8,0.5,2.2,0.5,3.1,0l10.4-6C424.6,400.4,424.6,399.6,423.7,399.1
		z M408.2,390.2l-10.4-6c-0.8-0.5-2.2-0.5-3.1,0l-10.4,6c-0.8,0.5-0.8,1.3,0,1.8l10.4,6c0.8,0.5,2.2,0.5,3.1,0l10.4-6
		C409.1,391.5,409.1,390.7,408.2,390.2z M392.8,381.3l-10.4-6c-0.8-0.5-2.2-0.5-3.1,0l-10.4,6c-0.8,0.5-0.8,1.3,0,1.8l10.4,6
		c0.8,0.5,2.2,0.5,3.1,0l10.4-6C393.6,382.6,393.6,381.8,392.8,381.3z M377.3,372.4l-10.4-6c-0.8-0.5-2.2-0.5-3.1,0l-10.4,6
		c-0.8,0.5-0.8,1.3,0,1.8l10.4,6c0.8,0.5,2.2,0.5,3.1,0l10.4-6C378.2,373.6,378.2,372.8,377.3,372.4z M361.9,363.4l-10.4-6
		c-0.8-0.5-2.2-0.5-3.1,0l-10.4,6c-0.8,0.5-0.8,1.3,0,1.8l10.4,6c0.8,0.5,2.2,0.5,3.1,0l10.4-6C362.7,364.7,362.7,363.9,361.9,363.4
		z M346.4,354.5l-10.4-6c-0.8-0.5-2.2-0.5-3.1,0l-10.4,6c-0.8,0.5-0.8,1.3,0,1.8l10.4,6c0.8,0.5,2.2,0.5,3.1,0l10.4-6
		C347.3,355.8,347.3,355,346.4,354.5z M331,345.6l-10.4-6c-0.8-0.5-2.2-0.5-3.1,0l-10.4,6c-0.8,0.5-0.8,1.3,0,1.8l10.4,6
		c0.8,0.5,2.2,0.5,3.1,0l10.4-6C331.8,346.9,331.8,346.1,331,345.6z M302.1,330.7l-10.4,6c-0.8,0.5-0.8,1.3,0,1.8l10.4,6
		c0.8,0.5,2.2,0.5,3.1,0l10.4-6c0.8-0.5,0.8-1.3,0-1.8l-10.4-6C304.3,330.2,302.9,330.2,302.1,330.7z M277.4,314.7
		c-0.8-0.5-2.2-0.5-3.1,0l-10.4,6c-0.8,0.5-0.8,1.3,0,1.8l22.4,12.9c0.8,0.5,2.2,0.5,3.1,0l10.4-6c0.8-0.5,0.8-1.3,0-1.8
		L277.4,314.7z M471.7,460.5c0.8,0.5,2.2,0.5,3.1,0l10.4-6c0.8-0.5,0.8-1.3,0-1.8L462,439.4c-0.8-0.5-2.2-0.5-3.1,0l-10.4,6
		c-0.8,0.5-0.8,1.3,0,1.8L471.7,460.5z M433.1,438.2l10.4,6c0.8,0.5,2.2,0.5,3.1,0l10.4-6c0.8-0.5,0.8-1.3,0-1.8l-10.4-6
		c-0.8-0.5-2.2-0.5-3.1,0l-10.4,6C432.2,436.9,432.2,437.7,433.1,438.2z M431,435.3l10.4-6c0.8-0.5,0.8-1.3,0-1.8l-10.4-6
		c-0.8-0.5-2.2-0.5-3.1,0l-10.4,6c-0.8,0.5-0.8,1.3,0,1.8l10.4,6C428.8,435.8,430.2,435.8,431,435.3z M402.1,420.4l10.4,6
		c0.8,0.5,2.2,0.5,3.1,0l10.4-6c0.8-0.5,0.8-1.3,0-1.8l-10.4-6c-0.8-0.5-2.2-0.5-3.1,0l-10.4,6C401.3,419.1,401.3,419.9,402.1,420.4
		z M386.7,411.4l10.4,6c0.8,0.5,2.2,0.5,3.1,0l10.4-6c0.8-0.5,0.8-1.3,0-1.8l-10.4-6c-0.8-0.5-2.2-0.5-3.1,0l-10.4,6
		C385.8,410.2,385.8,411,386.7,411.4z M371.2,402.5l10.4,6c0.8,0.5,2.2,0.5,3.1,0l10.4-6c0.8-0.5,0.8-1.3,0-1.8l-10.4-6
		c-0.8-0.5-2.2-0.5-3.1,0l-10.4,6C370.4,401.2,370.4,402,371.2,402.5z M355.8,393.6l10.4,6c0.8,0.5,2.2,0.5,3.1,0l10.4-6
		c0.8-0.5,0.8-1.3,0-1.8l-10.4-6c-0.8-0.5-2.2-0.5-3.1,0l-10.4,6C354.9,392.3,354.9,393.1,355.8,393.6z M340.3,384.7l10.4,6
		c0.8,0.5,2.2,0.5,3.1,0l10.4-6c0.8-0.5,0.8-1.3,0-1.8l-10.4-6c-0.8-0.5-2.2-0.5-3.1,0l-10.4,6C339.5,383.4,339.5,384.2,340.3,384.7
		z M324.9,375.7l10.4,6c0.8,0.5,2.2,0.5,3.1,0l10.4-6c0.8-0.5,0.8-1.3,0-1.8l-10.4-6c-0.8-0.5-2.2-0.5-3.1,0l-10.4,6
		C324,374.5,324,375.3,324.9,375.7z M309.4,366.8l10.4,6c0.8,0.5,2.2,0.5,3.1,0l10.4-6c0.8-0.5,0.8-1.3,0-1.8l-10.4-6
		c-0.8-0.5-2.2-0.5-3.1,0l-10.4,6C308.6,365.5,308.6,366.3,309.4,366.8z M293.9,357.9l10.4,6c0.8,0.5,2.2,0.5,3.1,0l10.4-6
		c0.8-0.5,0.8-1.3,0-1.8l-10.4-6c-0.8-0.5-2.2-0.5-3.1,0l-10.4,6C293.1,356.6,293.1,357.4,293.9,357.9z M288.9,341.2l-10.4,6
		c-0.8,0.5-0.8,1.3,0,1.8l10.4,6c0.8,0.5,2.2,0.5,3.1,0l10.4-6c0.8-0.5,0.8-1.3,0-1.8l-10.4-6C291.1,340.7,289.7,340.7,288.9,341.2z
		 M261.7,323.8c-0.8-0.5-2.2-0.5-3.1,0l-10.4,6c-0.8,0.5-0.8,1.3,0,1.8l24.7,14.2c0.8,0.5,2.2,0.5,3.1,0l10.4-6
		c0.8-0.5,0.8-1.3,0-1.8L261.7,323.8z M456,469.6c0.8,0.5,2.2,0.5,3.1,0l10.4-6c0.8-0.5,0.8-1.3,0-1.8l-34.6-20
		c-0.8-0.5-2.2-0.5-3.1,0l-10.4,6c-0.8,0.5-0.8,1.3,0,1.8L456,469.6z M405.6,440.6l10.4,6c0.8,0.5,2.2,0.5,3.1,0l10.4-6
		c0.8-0.5,0.8-1.3,0-1.8l-10.4-6c-0.8-0.5-2.2-0.5-3.1,0l-10.4,6C404.8,439.3,404.8,440.1,405.6,440.6z M390.2,431.6l10.4,6
		c0.8,0.5,2.2,0.5,3.1,0l10.4-6c0.8-0.5,0.8-1.3,0-1.8l-10.4-6c-0.8-0.5-2.2-0.5-3.1,0l-10.4,6C389.3,430.3,389.3,431.1,390.2,431.6
		z M374.7,422.7l10.4,6c0.8,0.5,2.2,0.5,3.1,0l10.4-6c0.8-0.5,0.8-1.3,0-1.8l-10.4-6c-0.8-0.5-2.2-0.5-3.1,0l-10.4,6
		C373.9,421.4,373.9,422.2,374.7,422.7z M359.3,413.8l10.4,6c0.8,0.5,2.2,0.5,3.1,0l10.4-6c0.8-0.5,0.8-1.3,0-1.8l-10.4-6
		c-0.8-0.5-2.2-0.5-3.1,0l-10.4,6C358.4,412.5,358.4,413.3,359.3,413.8z M343.8,404.9l10.4,6c0.8,0.5,2.2,0.5,3.1,0l10.4-6
		c0.8-0.5,0.8-1.3,0-1.8l-10.4-6c-0.8-0.5-2.2-0.5-3.1,0l-10.4,6C343,403.6,343,404.4,343.8,404.9z M328.4,395.9l10.4,6
		c0.8,0.5,2.2,0.5,3.1,0l10.4-6c0.8-0.5,0.8-1.3,0-1.8l-10.4-6c-0.8-0.5-2.2-0.5-3.1,0l-10.4,6C327.5,394.6,327.5,395.4,328.4,395.9
		z M312.9,387l10.4,6c0.8,0.5,2.2,0.5,3.1,0l10.4-6c0.8-0.5,0.8-1.3,0-1.8l-10.4-6c-0.8-0.5-2.2-0.5-3.1,0l-10.4,6
		C312.1,385.7,312.1,386.5,312.9,387z M297.4,378.1l10.4,6c0.8,0.5,2.2,0.5,3.1,0l10.4-6c0.8-0.5,0.8-1.3,0-1.8l-10.4-6
		c-0.8-0.5-2.2-0.5-3.1,0l-10.4,6C296.6,376.8,296.6,377.6,297.4,378.1z M282,369.2l10.4,6c0.8,0.5,2.2,0.5,3.1,0l10.4-6
		c0.8-0.5,0.8-1.3,0-1.8l-10.4-6c-0.8-0.5-2.2-0.5-3.1,0l-10.4,6C281.1,367.9,281.1,368.7,282,369.2z M266.5,360.2l10.4,6
		c0.8,0.5,2.2,0.5,3.1,0l10.4-6c0.8-0.5,0.8-1.3,0-1.8l-10.4-6c-0.8-0.5-2.2-0.5-3.1,0l-10.4,6C265.7,358.9,265.7,359.7,266.5,360.2
		z M246,332.9c-0.8-0.5-2.2-0.5-3.1,0l-10.4,6c-0.8,0.5-0.8,1.3,0,1.8l28.2,16.3c0.8,0.5,2.2,0.5,3.1,0l10.4-6
		c0.8-0.5,0.8-1.3,0-1.8L246,332.9z M263.4,376.4l16.1,9.3c0.8,0.5,2.2,0.5,3.1,0l10.4-6c0.8-0.5,0.8-1.3,0-1.8l-16.1-9.3
		c-0.8-0.5-2.2-0.5-3.1,0l-10.4,6C262.6,375.1,262.6,375.9,263.4,376.4z M247.9,367.4l10.4,6c0.8,0.5,2.2,0.5,3.1,0l10.4-6
		c0.8-0.5,0.8-1.3,0-1.8l-10.4-6c-0.8-0.5-2.2-0.5-3.1,0l-10.4,6C247,366.2,247,367,247.9,367.4z M232.4,358.5l10.4,6
		c0.8,0.5,2.2,0.5,3.1,0l10.4-6c0.8-0.5,0.8-1.3,0-1.8l-10.4-6c-0.8-0.5-2.2-0.5-3.1,0l-10.4,6C231.6,357.2,231.6,358,232.4,358.5z
		 M217,349.6l10.4,6c0.8,0.5,2.2,0.5,3.1,0l10.4-6c0.8-0.5,0.8-1.3,0-1.8l-10.4-6c-0.8-0.5-2.2-0.5-3.1,0l-10.4,6
		C216.1,348.3,216.1,349.1,217,349.6z M284.6,388.7l75.7,43.7c0.8,0.5,2.2,0.5,3.1,0l10.4-6c0.8-0.5,0.8-1.3,0-1.8L298,380.9
		c-0.8-0.5-2.2-0.5-3.1,0l-10.4,6C283.8,387.4,283.8,388.2,284.6,388.7z M365.4,435.3l16.1,9.3c0.8,0.5,2.2,0.5,3.1,0l10.4-6
		c0.8-0.5,0.8-1.3,0-1.8l-16.1-9.3c-0.8-0.5-2.2-0.5-3.1,0l-10.4,6C364.5,434,364.5,434.8,365.4,435.3z M386.4,447.6l10.4,6
		c0.8,0.5,2.2,0.5,3.1,0l10.4-6c0.8-0.5,0.8-1.3,0-1.8l-10.4-6c-0.8-0.5-2.2-0.5-3.1,0l-10.4,6C385.6,446.3,385.6,447.1,386.4,447.6
		z M402.2,456.7l9.7,5.6c0.8,0.5,2.2,0.5,3.1,0l3.3-1.9c0.8-0.5,0.8-1.3,0-1.8l-9.7-5.6c-0.8-0.5-2.2-0.5-3.1,0l-3.3,1.9
		C401.3,455.4,401.3,456.2,402.2,456.7z M416,464.7l9.7,5.6c0.8,0.5,2.2,0.5,3.1,0l3.3-1.9c0.8-0.5,0.8-1.3,0-1.8l-9.7-5.6
		c-0.8-0.5-2.2-0.5-3.1,0l-3.3,1.9C415.2,463.4,415.2,464.2,416,464.7z M429.9,472.7l9.7,5.6c0.8,0.5,2.2,0.5,3.1,0l3.3-1.9
		c0.8-0.5,0.8-1.3,0-1.8l-9.7-5.6c-0.8-0.5-2.2-0.5-3.1,0l-3.3,1.9C429,471.4,429,472.2,429.9,472.7z M423.6,460.3l9.7,5.6
		c0.8,0.5,2.2,0.5,3.1,0l3.3-1.9c0.8-0.5,0.8-1.3,0-1.8l-9.7-5.6c-0.8-0.5-2.2-0.5-3.1,0l-3.3,1.9
		C422.7,459.1,422.7,459.9,423.6,460.3z"/>
	<g class="st1">
		<path class="st21" d="M-289.9,213.5h-18.4c-1.1,0-2.1-0.9-2.1-2.1v-6.7c0-1.1,0.9-2.1,2.1-2.1h18.4c1.1,0,2.1,0.9,2.1,2.1v6.7
			C-287.8,212.6-288.8,213.5-289.9,213.5z"/>
		<path class="st21" d="M-263.9,213.5h-18.4c-1.1,0-2.1-0.9-2.1-2.1v-6.7c0-1.1,0.9-2.1,2.1-2.1h18.4c1.1,0,2.1,0.9,2.1,2.1v6.7
			C-261.8,212.6-262.8,213.5-263.9,213.5z"/>
		<path class="st21" d="M-315.9,213.5h-18.4c-1.1,0-2.1-0.9-2.1-2.1v-6.7c0-1.1,0.9-2.1,2.1-2.1h18.4c1.1,0,2.1,0.9,2.1,2.1v6.7
			C-313.8,212.6-314.8,213.5-315.9,213.5z"/>
		<path class="st21" d="M-237.9,213.5h-18.4c-1.1,0-2.1-0.9-2.1-2.1v-6.7c0-1.1,0.9-2.1,2.1-2.1h18.4c1.1,0,2.1,0.9,2.1,2.1v6.7
			C-235.8,212.6-236.8,213.5-237.9,213.5z"/>
		<path class="st21" d="M-211.9,213.5h-18.4c-1.1,0-2.1-0.9-2.1-2.1v-6.7c0-1.1,0.9-2.1,2.1-2.1h18.4c1.1,0,2.1,0.9,2.1,2.1v6.7
			C-209.8,212.6-210.8,213.5-211.9,213.5z"/>
		<path class="st21" d="M-185.9,213.5h-18.4c-1.1,0-2.1-0.9-2.1-2.1v-6.7c0-1.1,0.9-2.1,2.1-2.1h18.4c1.1,0,2.1,0.9,2.1,2.1v6.7
			C-183.8,212.6-184.8,213.5-185.9,213.5z"/>
		<path class="st21" d="M-159.9,213.5h-18.4c-1.1,0-2.1-0.9-2.1-2.1v-6.7c0-1.1,0.9-2.1,2.1-2.1h18.4c1.1,0,2.1,0.9,2.1,2.1v6.7
			C-157.8,212.6-158.8,213.5-159.9,213.5z"/>
		<path class="st21" d="M-133.9,213.5h-18.4c-1.1,0-2.1-0.9-2.1-2.1v-6.7c0-1.1,0.9-2.1,2.1-2.1h18.4c1.1,0,2.1,0.9,2.1,2.1v6.7
			C-131.8,212.6-132.8,213.5-133.9,213.5z"/>
		<path class="st21" d="M-107.9,213.5h-18.4c-1.1,0-2.1-0.9-2.1-2.1v-6.7c0-1.1,0.9-2.1,2.1-2.1h18.4c1.1,0,2.1,0.9,2.1,2.1v6.7
			C-105.8,212.6-106.8,213.5-107.9,213.5z"/>
		<path class="st21" d="M-81.9,213.5h-18.4c-1.1,0-2.1-0.9-2.1-2.1v-6.7c0-1.1,0.9-2.1,2.1-2.1h18.4c1.1,0,2.1,0.9,2.1,2.1v6.7
			C-79.8,212.6-80.8,213.5-81.9,213.5z"/>
		<path class="st21" d="M-55.9,213.5h-18.4c-1.1,0-2.1-0.9-2.1-2.1v-6.7c0-1.1,0.9-2.1,2.1-2.1h18.4c1.1,0,2.1,0.9,2.1,2.1v6.7
			C-53.8,212.6-54.8,213.5-55.9,213.5z"/>
		<path class="st21" d="M-29.9,213.5h-18.4c-1.1,0-2.1-0.9-2.1-2.1v-6.7c0-1.1,0.9-2.1,2.1-2.1h18.4c1.1,0,2.1,0.9,2.1,2.1v6.7
			C-27.8,212.6-28.8,213.5-29.9,213.5z"/>
		<path class="st21" d="M-3.9,213.5h-18.4c-1.1,0-2.1-0.9-2.1-2.1v-6.7c0-1.1,0.9-2.1,2.1-2.1h18.4c1.1,0,2.1,0.9,2.1,2.1v6.7
			C-1.8,212.6-2.8,213.5-3.9,213.5z"/>
		<path class="st21" d="M22.1,213.5H3.7c-1.1,0-2.1-0.9-2.1-2.1v-6.7c0-1.1,0.9-2.1,2.1-2.1h18.4c1.1,0,2.1,0.9,2.1,2.1v6.7
			C24.2,212.6,23.2,213.5,22.1,213.5z"/>
		<path class="st21" d="M-317.5,238.7H-334c-1.3,0-2.4-1.1-2.4-2.4v-16.5c0-1.3,1.1-2.4,2.4-2.4h16.5c1.3,0,2.4,1.1,2.4,2.4v16.5
			C-315.1,237.6-316.2,238.7-317.5,238.7z"/>
		<path class="st21" d="M-293,238.7h-16.5c-1.3,0-2.4-1.1-2.4-2.4v-16.5c0-1.3,1.1-2.4,2.4-2.4h16.5c1.3,0,2.4,1.1,2.4,2.4v16.5
			C-290.5,237.6-291.6,238.7-293,238.7z"/>
		<path class="st21" d="M-268.4,238.7h-16.5c-1.3,0-2.4-1.1-2.4-2.4v-16.5c0-1.3,1.1-2.4,2.4-2.4h16.5c1.3,0,2.4,1.1,2.4,2.4v16.5
			C-266,237.6-267.1,238.7-268.4,238.7z"/>
		<path class="st21" d="M-243.8,238.7h-16.5c-1.3,0-2.4-1.1-2.4-2.4v-16.5c0-1.3,1.1-2.4,2.4-2.4h16.5c1.3,0,2.4,1.1,2.4,2.4v16.5
			C-241.4,237.6-242.5,238.7-243.8,238.7z"/>
		<path class="st21" d="M-219.3,238.7h-16.5c-1.3,0-2.4-1.1-2.4-2.4v-16.5c0-1.3,1.1-2.4,2.4-2.4h16.5c1.3,0,2.4,1.1,2.4,2.4v16.5
			C-216.8,237.6-217.9,238.7-219.3,238.7z"/>
		<path class="st21" d="M-194.7,238.7h-16.5c-1.3,0-2.4-1.1-2.4-2.4v-16.5c0-1.3,1.1-2.4,2.4-2.4h16.5c1.3,0,2.4,1.1,2.4,2.4v16.5
			C-192.3,237.6-193.4,238.7-194.7,238.7z"/>
		<path class="st21" d="M-170.2,238.7h-16.5c-1.3,0-2.4-1.1-2.4-2.4v-16.5c0-1.3,1.1-2.4,2.4-2.4h16.5c1.3,0,2.4,1.1,2.4,2.4v16.5
			C-167.7,237.6-168.8,238.7-170.2,238.7z"/>
		<path class="st21" d="M-145.6,238.7h-16.5c-1.3,0-2.4-1.1-2.4-2.4v-16.5c0-1.3,1.1-2.4,2.4-2.4h16.5c1.3,0,2.4,1.1,2.4,2.4v16.5
			C-143.2,237.6-144.3,238.7-145.6,238.7z"/>
		<path class="st21" d="M-121,238.7h-16.5c-1.3,0-2.4-1.1-2.4-2.4v-16.5c0-1.3,1.1-2.4,2.4-2.4h16.5c1.3,0,2.4,1.1,2.4,2.4v16.5
			C-118.6,237.6-119.7,238.7-121,238.7z"/>
		<path class="st21" d="M-96.5,238.7h-16.5c-1.3,0-2.4-1.1-2.4-2.4v-16.5c0-1.3,1.1-2.4,2.4-2.4h16.5c1.3,0,2.4,1.1,2.4,2.4v16.5
			C-94,237.6-95.1,238.7-96.5,238.7z"/>
		<path class="st21" d="M-71.9,238.7h-16.5c-1.3,0-2.4-1.1-2.4-2.4v-16.5c0-1.3,1.1-2.4,2.4-2.4h16.5c1.3,0,2.4,1.1,2.4,2.4v16.5
			C-69.5,237.6-70.6,238.7-71.9,238.7z"/>
		<path class="st21" d="M-47.4,238.7h-16.5c-1.3,0-2.4-1.1-2.4-2.4v-16.5c0-1.3,1.1-2.4,2.4-2.4h16.5c1.3,0,2.4,1.1,2.4,2.4v16.5
			C-44.9,237.6-46,238.7-47.4,238.7z"/>
		<path class="st21" d="M-22.8,238.7h-16.5c-1.3,0-2.4-1.1-2.4-2.4v-16.5c0-1.3,1.1-2.4,2.4-2.4h16.5c1.3,0,2.4,1.1,2.4,2.4v16.5
			C-20.4,237.6-21.4,238.7-22.8,238.7z"/>
		<path class="st21" d="M21.2,238.7h-35.5c-1.3,0-2.4-1.1-2.4-2.4v-16.5c0-1.3,1.1-2.4,2.4-2.4h35.5c1.3,0,2.4,1.1,2.4,2.4v16.5
			C23.6,237.6,22.6,238.7,21.2,238.7z"/>
		<path class="st21" d="M4.7,263.7h16.5c1.3,0,2.4-1.1,2.4-2.4v-16.5c0-1.3-1.1-2.4-2.4-2.4H4.7c-1.3,0-2.4,1.1-2.4,2.4v16.5
			C2.3,262.6,3.4,263.7,4.7,263.7z"/>
		<path class="st21" d="M-19.8,263.7h16.5c1.3,0,2.4-1.1,2.4-2.4v-16.5c0-1.3-1.1-2.4-2.4-2.4h-16.5c-1.3,0-2.4,1.1-2.4,2.4v16.5
			C-22.3,262.6-21.2,263.7-19.8,263.7z"/>
		<path class="st21" d="M-44.4,263.7h16.5c1.3,0,2.4-1.1,2.4-2.4v-16.5c0-1.3-1.1-2.4-2.4-2.4h-16.5c-1.3,0-2.4,1.1-2.4,2.4v16.5
			C-46.8,262.6-45.7,263.7-44.4,263.7z"/>
		<path class="st21" d="M-68.9,263.7h16.5c1.3,0,2.4-1.1,2.4-2.4v-16.5c0-1.3-1.1-2.4-2.4-2.4h-16.5c-1.3,0-2.4,1.1-2.4,2.4v16.5
			C-71.4,262.6-70.3,263.7-68.9,263.7z"/>
		<path class="st21" d="M-93.5,263.7H-77c1.3,0,2.4-1.1,2.4-2.4v-16.5c0-1.3-1.1-2.4-2.4-2.4h-16.5c-1.3,0-2.4,1.1-2.4,2.4v16.5
			C-95.9,262.6-94.9,263.7-93.5,263.7z"/>
		<path class="st21" d="M-118.1,263.7h16.5c1.3,0,2.4-1.1,2.4-2.4v-16.5c0-1.3-1.1-2.4-2.4-2.4h-16.5c-1.3,0-2.4,1.1-2.4,2.4v16.5
			C-120.5,262.6-119.4,263.7-118.1,263.7z"/>
		<path class="st21" d="M-142.6,263.7h16.5c1.3,0,2.4-1.1,2.4-2.4v-16.5c0-1.3-1.1-2.4-2.4-2.4h-16.5c-1.3,0-2.4,1.1-2.4,2.4v16.5
			C-145.1,262.6-144,263.7-142.6,263.7z"/>
		<path class="st21" d="M-167.2,263.7h16.5c1.3,0,2.4-1.1,2.4-2.4v-16.5c0-1.3-1.1-2.4-2.4-2.4h-16.5c-1.3,0-2.4,1.1-2.4,2.4v16.5
			C-169.6,262.6-168.5,263.7-167.2,263.7z"/>
		<path class="st21" d="M-191.8,263.7h16.5c1.3,0,2.4-1.1,2.4-2.4v-16.5c0-1.3-1.1-2.4-2.4-2.4h-16.5c-1.3,0-2.4,1.1-2.4,2.4v16.5
			C-194.2,262.6-193.1,263.7-191.8,263.7z"/>
		<path class="st21" d="M-216.3,263.7h16.5c1.3,0,2.4-1.1,2.4-2.4v-16.5c0-1.3-1.1-2.4-2.4-2.4h-16.5c-1.3,0-2.4,1.1-2.4,2.4v16.5
			C-218.7,262.6-217.7,263.7-216.3,263.7z"/>
		<path class="st21" d="M-240.9,263.7h16.5c1.3,0,2.4-1.1,2.4-2.4v-16.5c0-1.3-1.1-2.4-2.4-2.4h-16.5c-1.3,0-2.4,1.1-2.4,2.4v16.5
			C-243.3,262.6-242.2,263.7-240.9,263.7z"/>
		<path class="st21" d="M-265.4,263.7h16.5c1.3,0,2.4-1.1,2.4-2.4v-16.5c0-1.3-1.1-2.4-2.4-2.4h-16.5c-1.3,0-2.4,1.1-2.4,2.4v16.5
			C-267.9,262.6-266.8,263.7-265.4,263.7z"/>
		<path class="st21" d="M-290,263.7h16.5c1.3,0,2.4-1.1,2.4-2.4v-16.5c0-1.3-1.1-2.4-2.4-2.4H-290c-1.3,0-2.4,1.1-2.4,2.4v16.5
			C-292.4,262.6-291.3,263.7-290,263.7z"/>
		<path class="st21" d="M-334,263.7h35.5c1.3,0,2.4-1.1,2.4-2.4v-16.5c0-1.3-1.1-2.4-2.4-2.4H-334c-1.3,0-2.4,1.1-2.4,2.4v16.5
			C-336.4,262.6-335.3,263.7-334,263.7z"/>
		<path class="st21" d="M-15.7,288.7H21c1.3,0,2.4-1.1,2.4-2.4v-16.5c0-1.3-1.1-2.4-2.4-2.4h-36.8c-1.3,0-2.4,1.1-2.4,2.4v16.5
			C-18.2,287.6-17.1,288.7-15.7,288.7z"/>
		<path class="st21" d="M-40.4,288.7h16.5c1.3,0,2.4-1.1,2.4-2.4v-16.5c0-1.3-1.1-2.4-2.4-2.4h-16.5c-1.3,0-2.4,1.1-2.4,2.4v16.5
			C-42.8,287.6-41.7,288.7-40.4,288.7z"/>
		<path class="st21" d="M-64.9,288.7h16.5c1.3,0,2.4-1.1,2.4-2.4v-16.5c0-1.3-1.1-2.4-2.4-2.4h-16.5c-1.3,0-2.4,1.1-2.4,2.4v16.5
			C-67.4,287.6-66.3,288.7-64.9,288.7z"/>
		<path class="st21" d="M-89.5,288.7H-73c1.3,0,2.4-1.1,2.4-2.4v-16.5c0-1.3-1.1-2.4-2.4-2.4h-16.5c-1.3,0-2.4,1.1-2.4,2.4v16.5
			C-91.9,287.6-90.9,288.7-89.5,288.7z"/>
		<path class="st21" d="M-114.1,288.7h16.5c1.3,0,2.4-1.1,2.4-2.4v-16.5c0-1.3-1.1-2.4-2.4-2.4h-16.5c-1.3,0-2.4,1.1-2.4,2.4v16.5
			C-116.5,287.6-115.4,288.7-114.1,288.7z"/>
		<path class="st21" d="M-138.6,288.7h16.5c1.3,0,2.4-1.1,2.4-2.4v-16.5c0-1.3-1.1-2.4-2.4-2.4h-16.5c-1.3,0-2.4,1.1-2.4,2.4v16.5
			C-141.1,287.6-140,288.7-138.6,288.7z"/>
		<path class="st21" d="M-163.2,288.7h16.5c1.3,0,2.4-1.1,2.4-2.4v-16.5c0-1.3-1.1-2.4-2.4-2.4h-16.5c-1.3,0-2.4,1.1-2.4,2.4v16.5
			C-165.6,287.6-164.5,288.7-163.2,288.7z"/>
		<path class="st21" d="M-187.8,288.7h16.5c1.3,0,2.4-1.1,2.4-2.4v-16.5c0-1.3-1.1-2.4-2.4-2.4h-16.5c-1.3,0-2.4,1.1-2.4,2.4v16.5
			C-190.2,287.6-189.1,288.7-187.8,288.7z"/>
		<path class="st21" d="M-212.3,288.7h16.5c1.3,0,2.4-1.1,2.4-2.4v-16.5c0-1.3-1.1-2.4-2.4-2.4h-16.5c-1.3,0-2.4,1.1-2.4,2.4v16.5
			C-214.7,287.6-213.7,288.7-212.3,288.7z"/>
		<path class="st21" d="M-236.9,288.7h16.5c1.3,0,2.4-1.1,2.4-2.4v-16.5c0-1.3-1.1-2.4-2.4-2.4h-16.5c-1.3,0-2.4,1.1-2.4,2.4v16.5
			C-239.3,287.6-238.2,288.7-236.9,288.7z"/>
		<path class="st21" d="M-261.4,288.7h16.5c1.3,0,2.4-1.1,2.4-2.4v-16.5c0-1.3-1.1-2.4-2.4-2.4h-16.5c-1.3,0-2.4,1.1-2.4,2.4v16.5
			C-263.9,287.6-262.8,288.7-261.4,288.7z"/>
		<path class="st21" d="M-286,288.7h16.5c1.3,0,2.4-1.1,2.4-2.4v-16.5c0-1.3-1.1-2.4-2.4-2.4H-286c-1.3,0-2.4,1.1-2.4,2.4v16.5
			C-288.4,287.6-287.3,288.7-286,288.7z"/>
		<path class="st21" d="M-334,288.7h39.2c1.3,0,2.4-1.1,2.4-2.4v-16.5c0-1.3-1.1-2.4-2.4-2.4H-334c-1.3,0-2.4,1.1-2.4,2.4v16.5
			C-336.4,287.6-335.3,288.7-334,288.7z"/>
		<path class="st21" d="M-34,313.7h55c1.3,0,2.4-1.1,2.4-2.4v-16.5c0-1.3-1.1-2.4-2.4-2.4h-55c-1.3,0-2.4,1.1-2.4,2.4v16.5
			C-36.4,312.6-35.3,313.7-34,313.7z"/>
		<path class="st21" d="M-58.9,313.7h16.5c1.3,0,2.4-1.1,2.4-2.4v-16.5c0-1.3-1.1-2.4-2.4-2.4h-16.5c-1.3,0-2.4,1.1-2.4,2.4v16.5
			C-61.4,312.6-60.3,313.7-58.9,313.7z"/>
		<path class="st21" d="M-83.5,313.7H-67c1.3,0,2.4-1.1,2.4-2.4v-16.5c0-1.3-1.1-2.4-2.4-2.4h-16.5c-1.3,0-2.4,1.1-2.4,2.4v16.5
			C-85.9,312.6-84.9,313.7-83.5,313.7z"/>
		<path class="st21" d="M-108.1,313.7h16.5c1.3,0,2.4-1.1,2.4-2.4v-16.5c0-1.3-1.1-2.4-2.4-2.4h-16.5c-1.3,0-2.4,1.1-2.4,2.4v16.5
			C-110.5,312.6-109.4,313.7-108.1,313.7z"/>
		<path class="st21" d="M-132.6,313.7h16.5c1.3,0,2.4-1.1,2.4-2.4v-16.5c0-1.3-1.1-2.4-2.4-2.4h-16.5c-1.3,0-2.4,1.1-2.4,2.4v16.5
			C-135.1,312.6-134,313.7-132.6,313.7z"/>
		<path class="st21" d="M-157.2,313.7h16.5c1.3,0,2.4-1.1,2.4-2.4v-16.5c0-1.3-1.1-2.4-2.4-2.4h-16.5c-1.3,0-2.4,1.1-2.4,2.4v16.5
			C-159.6,312.6-158.5,313.7-157.2,313.7z"/>
		<path class="st21" d="M-181.8,313.7h16.5c1.3,0,2.4-1.1,2.4-2.4v-16.5c0-1.3-1.1-2.4-2.4-2.4h-16.5c-1.3,0-2.4,1.1-2.4,2.4v16.5
			C-184.2,312.6-183.1,313.7-181.8,313.7z"/>
		<path class="st21" d="M-206.3,313.7h16.5c1.3,0,2.4-1.1,2.4-2.4v-16.5c0-1.3-1.1-2.4-2.4-2.4h-16.5c-1.3,0-2.4,1.1-2.4,2.4v16.5
			C-208.7,312.6-207.7,313.7-206.3,313.7z"/>
		<path class="st21" d="M-230.9,313.7h16.5c1.3,0,2.4-1.1,2.4-2.4v-16.5c0-1.3-1.1-2.4-2.4-2.4h-16.5c-1.3,0-2.4,1.1-2.4,2.4v16.5
			C-233.3,312.6-232.2,313.7-230.9,313.7z"/>
		<path class="st21" d="M-255.4,313.7h16.5c1.3,0,2.4-1.1,2.4-2.4v-16.5c0-1.3-1.1-2.4-2.4-2.4h-16.5c-1.3,0-2.4,1.1-2.4,2.4v16.5
			C-257.9,312.6-256.8,313.7-255.4,313.7z"/>
		<path class="st21" d="M-280,313.7h16.5c1.3,0,2.4-1.1,2.4-2.4v-16.5c0-1.3-1.1-2.4-2.4-2.4H-280c-1.3,0-2.4,1.1-2.4,2.4v16.5
			C-282.4,312.6-281.3,313.7-280,313.7z"/>
		<path class="st21" d="M-334,313.7h44.8c1.3,0,2.4-1.1,2.4-2.4v-16.5c0-1.3-1.1-2.4-2.4-2.4H-334c-1.3,0-2.4,1.1-2.4,2.4v16.5
			C-336.4,312.6-335.3,313.7-334,313.7z"/>
		<path class="st21" d="M-260.2,338.4h25.6c1.3,0,2.4-1.1,2.4-2.4v-16.5c0-1.3-1.1-2.4-2.4-2.4h-25.6c-1.3,0-2.4,1.1-2.4,2.4V336
			C-262.7,337.3-261.6,338.4-260.2,338.4z"/>
		<path class="st21" d="M-284.9,338.4h16.5c1.3,0,2.4-1.1,2.4-2.4v-16.5c0-1.3-1.1-2.4-2.4-2.4h-16.5c-1.3,0-2.4,1.1-2.4,2.4V336
			C-287.3,337.3-286.2,338.4-284.9,338.4z"/>
		<path class="st21" d="M-309.4,338.4h16.5c1.3,0,2.4-1.1,2.4-2.4v-16.5c0-1.3-1.1-2.4-2.4-2.4h-16.5c-1.3,0-2.4,1.1-2.4,2.4V336
			C-311.9,337.3-310.8,338.4-309.4,338.4z"/>
		<path class="st21" d="M-334,338.4h16.5c1.3,0,2.4-1.1,2.4-2.4v-16.5c0-1.3-1.1-2.4-2.4-2.4H-334c-1.3,0-2.4,1.1-2.4,2.4V336
			C-336.4,337.3-335.4,338.4-334,338.4z"/>
		<path class="st21" d="M-226.5,338.4h120.3c1.3,0,2.4-1.1,2.4-2.4v-16.5c0-1.3-1.1-2.4-2.4-2.4h-120.3c-1.3,0-2.4,1.1-2.4,2.4V336
			C-229,337.3-227.9,338.4-226.5,338.4z"/>
		<path class="st21" d="M-98.2,338.4h25.6c1.3,0,2.4-1.1,2.4-2.4v-16.5c0-1.3-1.1-2.4-2.4-2.4h-25.6c-1.3,0-2.4,1.1-2.4,2.4V336
			C-100.7,337.3-99.6,338.4-98.2,338.4z"/>
		<path class="st21" d="M-64.5,338.7H-48c1.3,0,2.4-1.1,2.4-2.4v-16.5c0-1.3-1.1-2.4-2.4-2.4h-16.5c-1.3,0-2.4,1.1-2.4,2.4v16.5
			C-66.9,337.6-65.9,338.7-64.5,338.7z"/>
		<path class="st21" d="M-39.5,338.7H-24c1.3,0,2.4-1.1,2.4-2.4v-5.3c0-1.3-1.1-2.4-2.4-2.4h-15.5c-1.3,0-2.4,1.1-2.4,2.4v5.3
			C-41.9,337.6-40.8,338.7-39.5,338.7z"/>
		<path class="st21" d="M-17.5,338.7H-2c1.3,0,2.4-1.1,2.4-2.4v-5.3c0-1.3-1.1-2.4-2.4-2.4h-15.5c-1.3,0-2.4,1.1-2.4,2.4v5.3
			C-19.9,337.6-18.8,338.7-17.5,338.7z"/>
		<path class="st21" d="M4.5,338.7H20c1.3,0,2.4-1.1,2.4-2.4v-5.3c0-1.3-1.1-2.4-2.4-2.4H4.5c-1.3,0-2.4,1.1-2.4,2.4v5.3
			C2.1,337.6,3.2,338.7,4.5,338.7z"/>
		<path class="st21" d="M-17.5,326.7H-2c1.3,0,2.4-1.1,2.4-2.4v-5.3c0-1.3-1.1-2.4-2.4-2.4h-15.5c-1.3,0-2.4,1.1-2.4,2.4v5.3
			C-19.9,325.6-18.8,326.7-17.5,326.7z"/>
	</g>
	<g class="st22">
		<path class="st23" d="M476.2,269.5l1.3-2.4c0.4-0.8-0.2-2-1.4-2.6l-90.4-49.8c-1.2-0.7-2.5-0.6-3,0.2l-1.3,2.4
			c-0.4,0.8,0.2,2,1.4,2.6l90.4,49.8C474.4,270.4,475.7,270.3,476.2,269.5z"/>
		<path class="st23" d="M446.8,264.1l-50.6-27.9c-1.2-0.7-2.5-0.6-3,0.2l-1.3,2.4c-0.4,0.8,0.2,2,1.4,2.6l50.6,27.9
			c1.2,0.7,2.5,0.6,3-0.2l1.3-2.4C448.7,265.9,448,264.7,446.8,264.1z"/>
		<path class="st23" d="M372.7,238.4c-1.2-0.7-2.5-0.6-3,0.2l-1.3,2.4c-0.4,0.8,0.2,2,1.4,2.6l34.1,18.8c1.2,0.7,2.5,0.6,3-0.2
			l1.3-2.4c0.4-0.8-0.2-2-1.4-2.6L372.7,238.4z"/>
		<path class="st23" d="M411.6,262l-1.3,2.4c-0.4,0.8,0.2,2,1.4,2.6l70.1,38.6c1.2,0.7,2.5,0.6,3-0.2l1.3-2.4c0.4-0.8-0.2-2-1.4-2.6
			l-70.1-38.6C413.4,261.1,412,261.2,411.6,262z"/>
		<path class="st23" d="M479.4,271.4c-0.4,0.8,0.2,2,1.4,2.6l24.2,13.3c1.2,0.7,2.5,0.6,3-0.2l1.3-2.4c0.4-0.8-0.2-2-1.4-2.6
			l-24.2-13.3c-1.2-0.7-2.5-0.6-3,0.2L479.4,271.4z"/>
		<path class="st23" d="M422.7,221.6l-1.3,2.4c-0.4,0.8,0.2,2,1.4,2.6l60.5,33.3c1.2,0.7,2.5,0.6,3-0.2l1.3-2.4
			c0.4-0.8-0.2-2-1.4-2.6l-60.5-33.3C424.5,220.6,423.2,220.8,422.7,221.6z"/>
		<path class="st23" d="M513.8,301l-59.1-32.5c-1.2-0.7-2.5-0.6-3,0.2l-1.3,2.4c-0.4,0.8,0.2,2,1.4,2.6l59.1,32.5
			c1.2,0.7,2.5,0.6,3-0.2l1.3-2.4C515.7,302.8,515,301.6,513.8,301z"/>
		<path class="st23" d="M483.7,314.9l-57.6-31.7c-1.2-0.7-2.5-0.6-3,0.2l-1.3,2.4c-0.4,0.8,0.2,2,1.4,2.6l57.6,31.7
			c1.2,0.7,2.5,0.6,3-0.2l1.3-2.4C485.5,316.7,484.9,315.5,483.7,314.9z"/>
		<path class="st23" d="M440.1,220.7l36.7,20.2c1.2,0.7,2.5,0.6,3-0.2l1.3-2.4c0.4-0.8-0.2-2-1.4-2.6L443,215.4
			c-1.2-0.7-2.5-0.6-3,0.2l-1.3,2.4C438.2,218.9,438.8,220.1,440.1,220.7z"/>
		<path class="st23" d="M418.7,279.1l-70.1-38.6c-1.2-0.7-2.5-0.6-3,0.2l-1.3,2.4c-0.4,0.8,0.2,2,1.4,2.6l70.1,38.6
			c1.2,0.7,2.5,0.6,3-0.2l1.3-2.4C420.5,280.9,419.9,279.7,418.7,279.1z"/>
		<path class="st23" d="M434.6,215.8l1.3-2.4c0.4-0.8-0.2-2-1.4-2.6l-69.3-38.1c-1.2-0.7-2.5-0.6-3,0.2l-1.3,2.4
			c-0.4,0.8,0.2,2,1.4,2.6l69.3,38.1C432.8,216.8,434.2,216.6,434.6,215.8z"/>
		<path class="st23" d="M414.2,221.9c1.2,0.7,2.5,0.6,3-0.2l1.3-2.4c0.4-0.8-0.2-2-1.4-2.6l-44-24.2c-1.2-0.7-2.5-0.6-3,0.2
			l-1.3,2.4c-0.4,0.8,0.2,2,1.4,2.6L414.2,221.9z"/>
	</g>
	<g class="st1">
		<path class="st24" d="M18.1,264.2h-57.9c-1,0-1.8-0.8-1.8-1.8v-3.1c0-1,0.8-1.8,1.8-1.8h57.9c1,0,1.8,0.8,1.8,1.8v3.1
			C20,263.3,19.2,264.2,18.1,264.2z"/>
		<path class="st24" d="M55.9,264.2H25.2c-1,0-1.8-0.8-1.8-1.8v-3.1c0-1,0.8-1.8,1.8-1.8h30.7c1,0,1.8,0.8,1.8,1.8v3.1
			C57.8,263.3,56.9,264.2,55.9,264.2z"/>
		<path class="st24" d="M9,279.2h-36.8c-1,0-1.8-0.8-1.8-1.8v-3.1c0-1,0.8-1.8,1.8-1.8H9c1,0,1.8,0.8,1.8,1.8v3.1
			C10.9,278.3,10.1,279.2,9,279.2z"/>
		<path class="st24" d="M66.8,279.2H16.2c-1,0-1.8-0.8-1.8-1.8v-3.1c0-1,0.8-1.8,1.8-1.8h50.6c1,0,1.8,0.8,1.8,1.8v3.1
			C68.6,278.3,67.8,279.2,66.8,279.2z"/>
		<path class="st24" d="M63.8,294.2h-75.6c-1,0-1.8-0.8-1.8-1.8v-3.1c0-1,0.8-1.8,1.8-1.8h75.6c1,0,1.8,0.8,1.8,1.8v3.1
			C65.6,293.3,64.8,294.2,63.8,294.2z"/>
		<path class="st24" d="M90.4,294.2H70.2c-1,0-1.8-0.8-1.8-1.8v-3.1c0-1,0.8-1.8,1.8-1.8h20.2c1,0,1.8,0.8,1.8,1.8v3.1
			C92.3,293.3,91.4,294.2,90.4,294.2z"/>
		<path class="st24" d="M44.9,309.5H2.5c-1,0-1.8-0.8-1.8-1.8v-3.1c0-1,0.8-1.8,1.8-1.8h42.3c1,0,1.8,0.8,1.8,1.8v3.1
			C46.7,308.7,45.9,309.5,44.9,309.5z"/>
		<path class="st24" d="M100.9,309.5H51.5c-1,0-1.8-0.8-1.8-1.8v-3.1c0-1,0.8-1.8,1.8-1.8h49.4c1,0,1.8,0.8,1.8,1.8v3.1
			C102.8,308.7,101.9,309.5,100.9,309.5z"/>
		<path class="st24" d="M16.7,324.2h-28.5c-1,0-1.8-0.8-1.8-1.8v-3.1c0-1,0.8-1.8,1.8-1.8h28.5c1,0,1.8,0.8,1.8,1.8v3.1
			C18.6,323.3,17.7,324.2,16.7,324.2z"/>
		<path class="st24" d="M82,324.5H23.3c-1,0-1.8-0.8-1.8-1.8v-3.1c0-1,0.8-1.8,1.8-1.8H82c1,0,1.8,0.8,1.8,1.8v3.1
			C83.8,323.7,83,324.5,82,324.5z"/>
		<path class="st24" d="M32.1,339.2h-58.7c-1,0-1.8-0.8-1.8-1.8v-3.1c0-1,0.8-1.8,1.8-1.8h58.7c1,0,1.8,0.8,1.8,1.8v3.1
			C33.9,338.3,33.1,339.2,32.1,339.2z"/>
		<path class="st24" d="M86.5,339.2H38.3c-1,0-1.8-0.8-1.8-1.8v-3.1c0-1,0.8-1.8,1.8-1.8h48.2c1,0,1.8,0.8,1.8,1.8v3.1
			C88.3,338.3,87.5,339.2,86.5,339.2z"/>
	</g>
</g>
<g id="Layer_12">
	<g>
		
			<radialGradient id="SVGID_7_" cx="278.2633" cy="560.5884" r="61.0889" gradientTransform="matrix(1.012 0.6019 -6.413683e-02 0.3938 49.2741 289.8038)" gradientUnits="userSpaceOnUse">
			<stop  offset="0" style="stop-color:#FFFFFF"/>
			<stop  offset="9.350359e-02" style="stop-color:#FFFFFF;stop-opacity:0.9065"/>
			<stop  offset="1" style="stop-color:#FFFFFF;stop-opacity:0"/>
		</radialGradient>
		<path class="st25" d="M380.9,725c-1.9,14-41.9,4.3-89.4-21.7c-47.5-25.9-84.4-58.3-82.5-72.2s41.9-4.3,89.4,21.7
			C345.8,678.7,382.8,711.1,380.9,725z"/>
		<linearGradient id="SVGID_8_" gradientUnits="userSpaceOnUse" x1="229.3917" y1="573.9545" x2="380.4174" y2="573.9545">
			<stop  offset="0" style="stop-color:#FFFFFF"/>
			<stop  offset="1" style="stop-color:#A5B6D9"/>
		</linearGradient>
		<path class="st26" d="M245.6,479.3l128.8,74.8c3.1,1.8,5.1,5.1,5.1,8.8l0.9,96.7c0.1,7.9-8.5,12.9-15.3,9l-124.5-71.3
			c-7-4-11.2-11.4-11.1-19.4l0.8-89.8C230.3,480.2,238.8,475.4,245.6,479.3z"/>
		<linearGradient id="SVGID_9_" gradientUnits="userSpaceOnUse" x1="249.4588" y1="588.0458" x2="338.3963" y2="588.0458">
			<stop  offset="0" style="stop-color:#23B7FF"/>
			<stop  offset="1" style="stop-color:#3D1AAC"/>
		</linearGradient>
		<polygon class="st27" points="249.5,581.5 273.4,548.2 284.8,571.1 318.1,540.8 338.4,635.3 		"/>
		<linearGradient id="SVGID_10_" gradientUnits="userSpaceOnUse" x1="336.376" y1="573.7021" x2="359.5416" y2="573.7021">
			<stop  offset="0" style="stop-color:#23B7FF"/>
			<stop  offset="1" style="stop-color:#3D1AAC"/>
		</linearGradient>
		<path class="st28" d="M352.9,565.8c5.8,6.1,8.3,14.5,5.6,18.8c-2.7,4.3-9.6,3-15.4-3.1s-8.3-14.5-5.6-18.8
			S347.1,559.8,352.9,565.8z"/>
	</g>
</g>
<g id="Layer_11">
</g>
<g id="Layer_13">
	<g>
		
			<ellipse transform="matrix(0.8008 -0.5989 0.5989 0.8008 -1.5994 165.006)" class="st29" cx="247.3" cy="84.9" rx="6.1" ry="10.9"/>
		
			<ellipse transform="matrix(0.8008 -0.5989 0.5989 0.8008 -30.8214 174.5487)" class="st29" cx="247" cy="133.6" rx="6.1" ry="10.9"/>
		
			<ellipse transform="matrix(0.8008 -0.5989 0.5989 0.8008 -9.4046 139.9345)" class="st29" cx="205.7" cy="84.1" rx="6.1" ry="10.9"/>
		<path class="st29" d="M203.6,86.6l44.8,0.5c0.7,0,0.9-0.7,0.5-1.6l-1.1-2.6c-0.4-0.9-1.3-1.6-1.9-1.6l-44.8-0.5
			c-0.7,0-0.9,0.7-0.5,1.6l1.1,2.6C202.1,85.8,203,86.6,203.6,86.6z"/>
		<path class="st29" d="M202.3,84l44.8,52.3c0.7,0.8,1.5,1.1,1.9,0.6l1.1-1.3c0.4-0.4,0.2-1.4-0.5-2.2l-44.8-52.3
			c-0.7-0.8-1.5-1.1-1.9-0.6l-1.1,1.3C201.4,82.2,201.6,83.2,202.3,84z"/>
	</g>
</g>
<g id="Layer_14">
	<g class="st1">
		<circle class="st30" cx="332.6" cy="120.8" r="8.2"/>
		<circle class="st30" cx="332.4" cy="169.7" r="8.2"/>
		<circle class="st30" cx="291.1" cy="144.5" r="8.2"/>
		<path class="st30" d="M289,148.2l44.8-25.9c0.7-0.4,0.9-1.3,0.5-1.9l-1.1-1.9c-0.4-0.7-1.3-0.9-1.9-0.5l-44.8,25.9
			c-0.7,0.4-0.9,1.3-0.5,1.9l1.1,1.9C287.5,148.4,288.3,148.6,289,148.2z"/>
		<path class="st30" d="M287.7,146.4l44.8,25.9c0.7,0.4,1.5,0.2,1.9-0.5l1.1-1.9c0.4-0.7,0.2-1.5-0.5-1.9L290.2,142
			c-0.7-0.4-1.5-0.2-1.9,0.5l-1.1,1.9C286.8,145.2,287,146,287.7,146.4z"/>
	</g>
	<g>
		<linearGradient id="SVGID_11_" gradientUnits="userSpaceOnUse" x1="627.7797" y1="226.441" x2="778.8054" y2="226.441">
			<stop  offset="0" style="stop-color:#FFFFFF"/>
			<stop  offset="1" style="stop-color:#A5B6D9"/>
		</linearGradient>
		<path class="st31" d="M644,131.8l128.8,74.8c3.1,1.8,5.1,5.1,5.1,8.8l0.9,96.7c0.1,7.9-8.5,12.9-15.3,9l-124.5-71.3
			c-7-4-11.2-11.4-11.1-19.4l0.8-89.8C628.7,132.7,637.2,127.9,644,131.8z"/>
		<g>
			<linearGradient id="SVGID_12_" gradientUnits="userSpaceOnUse" x1="638.3807" y1="212.7415" x2="673.8864" y2="212.7415">
				<stop  offset="0" style="stop-color:#23B7FF"/>
				<stop  offset="1" style="stop-color:#3D1AAC"/>
			</linearGradient>
			<path class="st32" d="M648,199.5l24.3,0.3c1.3,0,1.7-1.4,1-3.1l-0.5-1.2c-0.7-1.7-2.4-3.1-3.6-3.1l-29.4-0.3
				c-1.3,0-1.7,1.4-1,3.1l0,0c0.1,0.6,0.4,1.3,0.9,1.9c0.3,0.5,0.7,1,1.1,1.4l28.6,33.4c1.3,1.5,2.9,2,3.6,1.2l0.5-0.6
				c0.7-0.8,0.3-2.7-1-4.2L648,199.5z"/>
			<linearGradient id="SVGID_13_" gradientUnits="userSpaceOnUse" x1="721.7319" y1="245.148" x2="757.2375" y2="245.148">
				<stop  offset="0" style="stop-color:#23B7FF"/>
				<stop  offset="1" style="stop-color:#3D1AAC"/>
			</linearGradient>
			<path class="st33" d="M755.9,260.5l-29.4-34.3c-1.3-1.5-2.9-2-3.6-1.2l-0.5,0.6c-0.7,0.8-0.3,2.7,1,4.2l24.3,28.4l-24.6-0.3
				c-1.3,0-1.7,1.4-1,3.1l0.5,1.2c0.7,1.7,2.4,3.1,3.6,3.1l28.6,0.3c0.4,0.1,0.8,0.1,1.1,0c0.4-0.1,0.8-0.4,0.9-0.9l0,0
				C757.6,263.9,757.2,262,755.9,260.5z"/>
			<linearGradient id="SVGID_14_" gradientUnits="userSpaceOnUse" x1="680.6002" y1="224.8785" x2="720.5886" y2="224.8785">
				<stop  offset="0" style="stop-color:#23B7FF"/>
				<stop  offset="1" style="stop-color:#3D1AAC"/>
			</linearGradient>
			<path class="st34" d="M717.9,203.5c-1.3-1.5-2.9-2-3.6-1.2L681,240.5c-0.7,0.8-0.3,2.7,1,4.2l1.3,1.6c1.3,1.5,2.9,2,3.6,1.2
				l33.3-38.1c0.7-0.8,0.3-2.7-1-4.2L717.9,203.5z"/>
		</g>
	</g>
	<g>
		<linearGradient id="SVGID_15_" gradientUnits="userSpaceOnUse" x1="549.9939" y1="568.9391" x2="651.5965" y2="568.9391">
			<stop  offset="0" style="stop-color:#23B7FF"/>
			<stop  offset="1" style="stop-color:#3D1AAC"/>
		</linearGradient>
		<path class="st35" d="M597.2,518.6l-3.6,2.9c-1.7,2.5-3.1,3-6.6-0.7l-5.4-5.7c-4.7-4.9-8.2-3.3-11-2c-0.7,0.3-4.7,2.1-4.5,3.1
			l6.9,7.6c0.9,4.2-1.3,6.7-4.9,5.7l-6.4-1.8c-3.9-1.1-4.7-1.6-7.8,0.8c-2.1,1.7-4.8,4.5-3.3,6.4l15,12.3c3.1,4.2,3.7,9,1.4,10.8
			l-2.6,2c-3.6,2.8,0.2,12,6.3,15.1l5.4,2.8c3.9,2,7.3,6.9,7.7,11.1l0.3,3.9c0.6,6.7,8.5,13.9,12.6,11.5l1.5-0.9
			c2.6-1.5,7.3,0.9,10.3,5.4l4.2,15.7c2.7,4.1,8.1-1,10-2.1c1.9-1.1,2.9-1.5,3-4l0.1-4.4c0.1-4.1,3.6-5.3,7.7-2.5l2.9,8.7
			c1.9,1.3,6.5-2.7,7.6-3.5c3.2-2.3,4-4.6,1.2-9.7l-2.2-4c-1.5-2.8-2-5.4-1.4-7.2c0.4-1.4,0.7,0.5,2.2,0.3l5.2-3.3
			c4.3-3,3.5-9.8-2.8-14.6L643,576c-4.1-3.2-6.7-8.8-5.7-12.2l1.4-4.6c1.6-5.2-5-14.2-10.5-14.3l-2.1,0c-3.6,0-8.1-4.1-10-8.8l-4-10
			C609.5,519.2,599.8,514.8,597.2,518.6z"/>
		<path class="st29" d="M592.6,522.4l-2.9,4.3c-1.7,2.5-5.9,1.6-9.5-2.2l-5.4-5.7c-5.5-5.7-11.4-4.4-10,2.3l1.3,6.4
			c0.9,4.2-1.3,6.7-4.9,5.7l-6.4-1.8c-5.6-1.6-7,4.9-2.3,11.2l6.2,8.3c3.1,4.2,3.7,9,1.4,10.8l-2.6,2c-3.6,2.8,0.2,12,6.3,15.1
			l5.4,2.8c3.9,2,7.3,6.9,7.7,11.1l0.3,3.9c0.6,6.7,8.5,13.9,12.6,11.5l1.5-0.9c2.6-1.5,7.3,0.9,10.3,5.4l5.2,7.8
			c4.6,6.9,11.9,8,12,1.8l0.1-4.4c0.1-4.1,3.6-5.3,7.7-2.5l5.6,3.7c6.3,4.2,10.1-0.9,6.1-8.2l-2.2-4c-2.7-4.8-2-9.3,1.4-9.7l4.5-0.5
			c5.2-0.6,3.5-9.8-2.8-14.6l-3.1-2.4c-4.1-3.2-6.7-8.8-5.7-12.2l1.4-4.6c1.6-5.2-5-14.2-10.5-14.3l-2.1,0c-3.6,0-8.1-4.1-10-8.8
			l-4-10C602.7,523,595.1,518.6,592.6,522.4z"/>
		<linearGradient id="SVGID_16_" gradientUnits="userSpaceOnUse" x1="571.1119" y1="570.3374" x2="624.3716" y2="570.3374">
			<stop  offset="0" style="stop-color:#3D1AAC"/>
			<stop  offset="1" style="stop-color:#3D1AAC"/>
		</linearGradient>
		<path class="st36" d="M624.4,586c0,14.8-11.9,19.7-26.6,11.1c-14.7-8.7-26.6-27.7-26.6-42.4s11.9-19.7,26.6-11.1
			S624.4,571.2,624.4,586z"/>
		
			<ellipse transform="matrix(0.803 -0.596 0.596 0.803 -222.232 468.5188)" class="st23" cx="597.6" cy="570.4" rx="17.1" ry="30.4"/>
	</g>
	<circle class="st29" cx="662.4" cy="462.6" r="8.2"/>
	<circle class="st29" cx="641.5" cy="418.5" r="8.2"/>
	<circle class="st29" cx="689.7" cy="423.3" r="8.2"/>
	<path class="st29" d="M689.9,419.1l-29.2,42.7c-0.4,0.6-0.3,1.5,0.4,2l1.8,1.3c0.6,0.4,1.5,0.3,2-0.4l29.2-42.7
		c0.4-0.6,0.3-1.5-0.4-2l-1.8-1.3C691.2,418.3,690.3,418.4,689.9,419.1z"/>
	<path class="st29" d="M691.9,420.1l-51.6-3.9c-0.8-0.1-1.5,0.5-1.5,1.3l-0.2,2.2c-0.1,0.8,0.5,1.5,1.3,1.5l51.6,3.9
		c0.8,0.1,1.5-0.5,1.5-1.3l0.2-2.2C693.2,420.9,692.7,420.2,691.9,420.1z"/>
	<g>
		
			<ellipse transform="matrix(0.6738 -0.7389 0.7389 0.6738 103.4831 422.2812)" class="st29" cx="530" cy="93.9" rx="4.7" ry="8.2"/>
		
			<ellipse transform="matrix(0.6738 -0.7389 0.7389 0.6738 125.0196 429.7291)" class="st29" cx="549.2" cy="73.3" rx="4.7" ry="8.2"/>
		
			<ellipse transform="matrix(0.6738 -0.7389 0.7389 0.6738 103.2812 457.6489)" class="st29" cx="569.9" cy="111.9" rx="4.7" ry="8.2"/>
		<path class="st29" d="M572.9,111.7l-43.2-19.2c-0.6-0.3-1.2-0.1-1.1,0.5l0.1,1.6c0,0.5,0.6,1.2,1.2,1.5l43.2,19.2
			c0.6,0.3,1.2,0.1,1.1-0.5l-0.1-1.6C574.1,112.6,573.5,111.9,572.9,111.7z"/>
		<path class="st29" d="M573.2,113.3l-23.1-41.2c-0.3-0.6-1.1-1.1-1.6-1.1l-1.6,0.1c-0.5,0-0.7,0.6-0.4,1.2l23.1,41.2
			c0.3,0.6,1.1,1.1,1.6,1.1l1.6-0.1C573.3,114.5,573.5,113.9,573.2,113.3z"/>
	</g>
</g>
<g id="Layer_17" class="st1">
	<path class="st37" d="M-476.6,123.8l-6.9,14.2c-4,8.3-14,11.9-22.4,8l-12.8-5.9c-12.9-5.9-26.9,5.6-23.6,19.4l3.2,13.3
		c2.1,8.8-3,17.6-11.6,20.2l-15.1,4.5c-13.3,4-16.4,21.3-5.4,29.8l14.6,11.1c7.3,5.6,8.8,16.1,3.4,23.5l-6.1,8.3
		c-8.6,11.7,0.5,28.1,15,27l12.9-1c9.2-0.7,17.3,6.2,18.2,15.4l0.8,8.8c1.4,15,20.1,20.9,29.8,9.5l3.6-4.3c6.2-7.3,17.2-8,24.3-1.5
		l12.2,11.1c10.8,9.8,28.2,2.3,28.4-12.4l0.1-10.4c0.1-9.8,8.5-17.5,18.3-16.7l13.2,1c15,1.2,24-16.3,14.4-27.8l-5.3-6.3
		c-6.4-7.6-4.8-19.1,3.3-24.8l10.7-7.5c12.4-8.7,8.2-27.9-6.7-30.6l-7.3-1.3c-9.7-1.8-15.9-11.5-13.4-21l3.3-12.8
		c3.8-14.6-11.8-26.5-24.9-19l-4.9,2.8c-8.4,4.8-19.1,1.7-23.6-6.9l-9.4-18.2C-452.7,110.9-470.5,111.1-476.6,123.8z"/>
	<ellipse class="st21" cx="-464.6" cy="230.1" rx="53.7" ry="54"/>
	<ellipse class="st38" cx="-464.4" cy="229.7" rx="62.9" ry="63.2"/>
</g>
<g id="Layer_15">
</g>
<g id="Layer_16" class="st39">
	<path class="st37" d="M-230.1,342.4l68.3-39.4c2.9-1.7,3.9-5.5,2.3-8.4l-1.2-2.1c-1.7-2.9-5.5-3.9-8.4-2.3l-68.3,39.4
		c-2.9,1.7-3.9,5.5-2.3,8.4l1.2,2.1C-236.8,343.1-233,344.1-230.1,342.4z"/>
	<path class="st37" d="M-236.8,341.9l68.3,39.4c2.9,1.7,6.7,0.7,8.4-2.3l1.2-2.1c1.7-2.9,0.7-6.7-2.3-8.4l-68.3-39.4
		c-2.9-1.7-6.7-0.7-8.4,2.3l-1.2,2.1C-240.8,336.4-239.8,340.2-236.8,341.9z"/>
	<path class="st37" d="M24.9,342.3l-68.3-39.4c-2.9-1.7-3.9-5.5-2.3-8.4l1.2-2.1c1.7-2.9,5.5-3.9,8.4-2.3l68.3,39.4
		c2.9,1.7,3.9,5.5,2.3,8.4l-1.2,2.1C31.6,343,27.8,344,24.9,342.3z"/>
	<path class="st37" d="M31.6,341.7l-68.3,39.4c-2.9,1.7-6.7,0.7-8.4-2.3l-1.2-2.1c-1.7-2.9-0.7-6.7,2.3-8.4L24.2,329
		c2.9-1.7,6.7-0.7,8.4,2.3l1.2,2.1C35.6,336.3,34.5,340.1,31.6,341.7z"/>
	<path class="st37" d="M-128,393.5l77.4-134.1c1.7-2.9,0.7-6.7-2.3-8.4l-3.1-1.8c-2.9-1.7-6.7-0.7-8.4,2.3l-77.4,134.1
		c-1.7,2.9-0.7,6.7,2.3,8.4l3.1,1.8C-133.4,397.4-129.7,396.4-128,393.5z"/>
</g>
<g id="Layer_18">
	<rect x="-366.2" y="102.5" class="st0" width="162.8" height="154.5"/>
	<text transform="matrix(1 0 0 1 -366.2469 195.5314)" class="st1" style="font-family:'JosefinSans-Regular'; font-size:120px;">{ }</text>
	<g>
		
			<radialGradient id="SVGID_17_" cx="79.5778" cy="510.9914" r="61.0889" gradientTransform="matrix(1.012 0.6019 -6.413683e-02 0.3938 53.8808 250.874)" gradientUnits="userSpaceOnUse">
			<stop  offset="0" style="stop-color:#FFFFFF"/>
			<stop  offset="1" style="stop-color:#FFFFFF;stop-opacity:0"/>
		</radialGradient>
		<path class="st40" d="M187.6,547c-1.9,14-41.9,4.3-89.4-21.7c-47.5-25.9-84.4-58.3-82.5-72.2c1.9-14,41.9-4.3,89.4,21.7
			C152.5,500.7,189.5,533,187.6,547z"/>
		<linearGradient id="SVGID_18_" gradientUnits="userSpaceOnUse" x1="62.5804" y1="214.4565" x2="213.6061" y2="214.4565">
			<stop  offset="0" style="stop-color:#23B7FF"/>
			<stop  offset="1" style="stop-color:#3D1AAC"/>
		</linearGradient>
		<path class="st41" d="M78.8,119.8l128.8,74.8c3.1,1.8,5.1,5.1,5.1,8.8l0.9,96.7c0.1,7.9-8.5,12.9-15.3,9L73.7,237.8
			c-7-4-11.2-11.4-11.1-19.4l0.8-89.8C63.5,120.7,72,115.9,78.8,119.8z"/>
		<g>
			<path class="st23" d="M114.6,167.1c-0.6,0.1-1,0.6-1.2,1.6c-0.2,1-0.3,2.6-0.3,4.9v9c0,3.2-0.5,5.4-1.5,6.6
				c-0.4,0.5-0.8,0.9-1.3,1.2c-1,0.6-1,2.2-0.1,4c1.9,3.3,2.8,6.7,2.8,10.2v10c0,2.2,0.1,4,0.3,5.3c0.2,1.3,0.6,2.3,1.2,3
				c0.6,0.7,1.4,1.4,2.5,2.1l0.3,0.2c1.7,1,3.1,3.3,3.1,5v0c0,1.7-1.4,2.3-3.1,1.3l-1.8-1c-2.5-1.4-4.3-2.6-5.5-3.6
				c-1.2-1-2.2-2.4-3.1-4.4c-0.9-2-1.3-4.6-1.3-8v-12.2c0-2.5-0.5-4.9-1.6-7.4c-0.7-1.7-1.6-3.1-2.8-4.2c-1.2-1.1-1.9-2.7-1.9-4
				v-1.2c0-1.2,0.7-2,1.9-1.8c1.1,0.2,2.1-0.1,2.8-0.9c1-1.3,1.6-3.2,1.6-5.7v-12.8c0-3,0.4-4.8,1.3-5.6c0.9-0.8,2-1,3.2-0.5
				c1.3,0.5,3.1,1.4,5.4,2.8l1.8,1c1.7,1,3.1,3.3,3.1,5v0.1c0,1.7-1.4,2.3-3.1,1.3l-0.3-0.2C116,167.3,115.2,167,114.6,167.1z"/>
			<path class="st23" d="M159.1,248.9c0.6-0.1,1-0.6,1.2-1.6c0.2-1,0.3-2.6,0.3-4.9v-10c0-2.8,0.5-4.7,1.5-5.7
				c0.4-0.4,0.8-0.7,1.3-1c1-0.6,1-2.3,0-4c-1.9-3.3-2.8-6.7-2.8-10.2v-10c0-2.2-0.1-4-0.3-5.2c-0.2-1.2-0.6-2.2-1.1-2.9
				c-0.5-0.7-1.4-1.4-2.5-2.1l-0.3-0.2c-1.7-1-3.1-3.3-3.1-5V186c0-1.7,1.4-2.3,3.1-1.3l1.8,1c2.4,1.4,4.2,2.6,5.4,3.5
				c1.2,0.9,2.3,2.3,3.2,4.2c0.9,1.9,1.4,4.3,1.4,7.3v12.1c0,2.7,0.5,5.3,1.4,8c0.6,1.8,1.5,3.3,2.8,4.5c1.2,1.2,2,2.8,2,4.1v1.4
				c0,1.3-0.8,1.9-2,1.7c-1.2-0.2-2.1,0.2-2.7,1.2c-0.9,1.6-1.4,3.7-1.4,6.4V252c0,3-0.4,4.8-1.3,5.6c-0.9,0.8-2,1-3.2,0.5
				c-1.2-0.5-3-1.4-5.4-2.9l-1.8-1c-1.7-1-3.1-3.3-3.1-5v0c0-1.7,1.4-2.3,3.1-1.3l0.3,0.2C157.7,248.7,158.5,249,159.1,248.9z"/>
		</g>
	</g>
	<rect x="-536.5" y="81.2" class="st0" width="298.5" height="135.4"/>
	<text transform="matrix(1 0 0 1 -536.4969 174.1564)" class="st1" style="font-family:'JosefinSans-Regular'; font-size:120px;">&lt;/&gt;</text>
	<g>
		<path d="M-519.8,159.6c-3.2-1.8-3.2-6.4,0-8.3"/>
		<path d="M-423,94.9L-423,94.9"/>
	</g>
	<g class="st1">
		<path class="st37" d="M-507.9,83.5c-0.9,0.6-1.5,1.8-1.9,3.6c-0.4,1.8-0.5,4.4-0.5,7.9v14c0,5-0.8,8.9-2.3,11.6
			c-0.6,1.1-1.3,2.2-2.1,3.1c-1.5,1.8-1.6,4.5-0.1,6.3c3,3.4,4.5,7.9,4.5,13.3v15.7c0,3.5,0.2,6.2,0.5,7.9c0.4,1.8,1,3,1.9,3.6
			c0.9,0.6,2.2,1,3.8,1h0.5c2.7,0,4.9,2.2,4.9,4.9l0,0c0,2.7-2.2,4.9-4.9,4.9h-2.8c-3.8,0-6.7-0.2-8.6-0.6c-1.9-0.4-3.5-1.7-4.9-4
			c-1.4-2.3-2.1-6-2.1-11.2v-19.1c0-3.8-0.8-7.2-2.5-10.2c-1.1-2-2.5-3.3-4.3-4c-1.8-0.7-2.9-2.6-2.9-4.5v-1.9c0-2,1.1-3.8,2.9-4.5
			c1.8-0.7,3.2-2,4.3-4c1.6-3,2.5-6.4,2.5-10.3V87c0-4.6,0.7-8,2.1-10.1c1.4-2.1,3.1-3.3,5-3.7c2-0.4,4.8-0.6,8.5-0.6h2.8
			c2.7,0,4.9,2.2,4.9,4.9v0.1c0,2.7-2.2,4.9-4.9,4.9h-0.5C-505.7,82.5-507,82.8-507.9,83.5z"/>
		<path class="st37" d="M-438.3,170.6c0.9-0.6,1.5-1.8,1.9-3.6c0.4-1.8,0.5-4.4,0.5-8v-15.7c0-4.3,0.8-7.8,2.4-10.3
			c0.6-1,1.3-1.9,2-2.8c1.5-1.8,1.6-4.5,0-6.2c-3-3.4-4.5-7.9-4.5-13.3V94.9c0-3.5-0.2-6.1-0.5-7.9c-0.4-1.7-1-2.9-1.8-3.5
			c-0.8-0.6-2.1-1-3.9-1h-0.5c-2.7,0-4.9-2.2-4.9-4.9v-0.1c0-2.7,2.2-4.9,4.9-4.9h2.8c3.8,0,6.6,0.2,8.5,0.5c1.9,0.4,3.5,1.6,5,3.7
			c1.4,2.1,2.2,5.5,2.2,10.2v19c0,4.2,0.7,7.9,2.2,11.2c1,2.2,2.4,3.7,4.3,4.5c1.9,0.8,3.1,2.6,3.1,4.6v2.1c0,2-1.3,3.7-3.2,4.5
			c-1.9,0.8-3.3,2.2-4.3,4.4c-1.4,3.3-2.2,7-2.2,11.3v18.6c0,4.6-0.7,8-2.1,10.1c-1.4,2.1-3.1,3.3-5,3.7s-4.8,0.5-8.5,0.5h-2.8
			c-2.7,0-4.9-2.2-4.9-4.9l0,0c0-2.7,2.2-4.9,4.9-4.9h0.5C-440.5,171.6-439.2,171.2-438.3,170.6z"/>
	</g>
</g>
</svg>
